<svg xmlns="http://www.w3.org/2000/svg" version="1.1" xmlns:xlink="http://www.w3.org/1999/xlink" width="512" height="512" x="0" y="0" viewBox="0 0 64 64" style="enable-background:new 0 0 512 512" xml:space="preserve" class=""><g><path fill="#af7a58" d="M54.583 41.218c2.16 4.61.99 9.69-2.61 11.36s-8.25-.71-10.41-5.31-.99-9.69 2.61-11.36 8.26.71 10.41 5.31z" opacity="1" data-original="#af7a58"></path><path fill="#4a7017" d="M61.513 39.128c3.56 7.62.55 16.66-7.15 21.24-9.07 5.39-20.38 2.16-24.47-6.57l-.5-1.05A25.632 25.632 0 0 1 27 41.318l.24-17.66a7.748 7.748 0 0 1 4.58-6.82l2.79-1.29v.01a6.291 6.291 0 0 0-3.52 5.8c0 .1.01.21.01.32l.71 16.49a28.14 28.14 0 0 0 2.62 10.8l.48 1.01c3.92 8.36 13.67 11.96 21.08 7.39 5.93-3.66 8.13-11.25 5.48-18.23z" opacity="1" data-original="#4a7017"></path><path fill="#fffcbd" d="M61.473 39.138c2.65 6.98.45 14.57-5.48 18.23-7.41 4.57-17.16.97-21.08-7.39l-.48-1.01a28.14 28.14 0 0 1-2.62-10.8l-.71-16.49c0-.11-.01-.22-.01-.32a6.291 6.291 0 0 1 3.52-5.8c.01 0 .01-.01.02-.01a6.383 6.383 0 0 1 6.99 1.25l12.23 11.14a28 28 0 0 1 6.62 8.94l.48 1.01c.19.412.37.83.52 1.25zm-9.5 13.44c3.6-1.67 4.77-6.75 2.61-11.36s-6.82-6.98-10.41-5.31-4.76 6.76-2.61 11.36 6.82 6.98 10.41 5.31z" opacity="1" data-original="#fffcbd"></path><path fill="#af7a58" d="M23 5.38V6a2.006 2.006 0 0 1-2 2h-2a2.006 2.006 0 0 1-2-2V3a2.006 2.006 0 0 1 2-2h2a2.006 2.006 0 0 1 2 2z" opacity="1" data-original="#af7a58"></path><path fill="#4a7017" d="M29.393 52.748A25.632 25.632 0 0 1 27 41.318l.24-17.66a7.662 7.662 0 0 1 3.588-6.272l-.391-.866a24.864 24.864 0 0 1-1.57-4.96A7.794 7.794 0 0 0 23 5.38V6a2.006 2.006 0 0 1-2 2h-2a2.006 2.006 0 0 1-2-2v-.62a7.781 7.781 0 0 0-5.87 6.18 24.864 24.864 0 0 1-1.57 4.96L4.84 26.98A31.453 31.453 0 0 0 1 42c0 11.6 8.51 21 19 21a17.914 17.914 0 0 0 12.558-5.273 15.429 15.429 0 0 1-2.665-3.927z" opacity="1" data-original="#4a7017"></path><path fill="#5b8a1d" d="m61.513 39.128-.04.01c2.647 6.97.456 14.547-5.455 18.213l-.025.017c-7.41 4.57-17.16.97-21.08-7.39l-.48-1.01a28.14 28.14 0 0 1-2.62-10.8l-.71-16.49c0-.11-.01-.22-.01-.32a6.291 6.291 0 0 1 3.52-5.8v-.01l-1.64.759a7.668 7.668 0 0 0-3.73 6.351L29 40.318a25.632 25.632 0 0 0 2.39 11.43l.5 1.05c3.769 8.045 13.666 11.4 22.3 7.663.058-.034.118-.059.175-.093a17.992 17.992 0 0 0 6.169-6.044 15.928 15.928 0 0 0 .979-15.196z" opacity="1" data-original="#5b8a1d"></path><path fill="#db996e" d="M21 1h-2a2.006 2.006 0 0 1 2 2v3a2.006 2.006 0 0 1-2 2h2a2.006 2.006 0 0 0 2-2V3a2.006 2.006 0 0 0-2-2zM54.583 41.218c-2.15-4.6-6.82-6.98-10.41-5.31a5.716 5.716 0 0 0-1.1.68c3.437-.936 7.534 1.406 9.508 5.63 1.921 4.1 1.2 8.565-1.51 10.679a5.642 5.642 0 0 0 .9-.319c3.602-1.67 4.772-6.75 2.612-11.36z" opacity="1" data-original="#db996e"></path><path fill="#845335" d="M52.614 51.1c-3.07.048-6.342-2.189-8.051-5.828a9.779 9.779 0 0 1-.02-8.878 5.907 5.907 0 0 0-1.468.2c-2.712 2.116-3.424 6.589-1.512 10.68 1.984 4.224 6.074 6.567 9.51 5.629a6.189 6.189 0 0 0 1.541-1.803z" opacity="1" data-original="#845335"></path><path fill="#ded982" d="M41.563 47.268c-1.649-3.528-1.344-7.338.508-9.678a5.616 5.616 0 0 0-.9.318c-3.6 1.67-4.76 6.76-2.61 11.36s6.82 6.98 10.41 5.31a5.8 5.8 0 0 0 2.108-1.678c-3.437.938-7.531-1.4-9.516-5.632z" opacity="1" data-original="#ded982"></path><path fill="#2d4f00" d="m29.969 59.849.023-.017a19.248 19.248 0 0 0 2.565-2.106 15.429 15.429 0 0 1-2.664-3.926l-.5-1.05A25.632 25.632 0 0 1 27 41.318l.24-17.66a7.662 7.662 0 0 1 3.588-6.272l-.391-.866q-.226-.551-.438-1.108c-.123.047-.249.081-.369.136-.01 0-.01.01-.02.01v-.01l-2.79 1.29a7.748 7.748 0 0 0-4.58 6.82L22 41.318a25.632 25.632 0 0 0 2.39 11.43l.5 1.05a15.228 15.228 0 0 0 .985 1.78C13.537 54.06 3.922 48.26 1.564 36.1A31.2 31.2 0 0 0 1 42c0 11.6 8.51 21 19 21a17.529 17.529 0 0 0 9.969-3.151M23 7V6a2.006 2.006 0 0 1-2 2h-2a2.006 2.006 0 0 1-2-2v-.62A7.785 7.785 0 0 0 11.272 11H19a4 4 0 0 0 4-4z" opacity="1" data-original="#2d4f00"></path><g fill="#f6fafd"><ellipse cx="49.684" cy="40.695" rx="1.642" ry="2.286" transform="rotate(-45 49.708 40.715)" fill="#f6fafd" opacity="1" data-original="#f6fafd"></ellipse><ellipse cx="52.682" cy="43.708" rx=".825" ry="1.148" transform="rotate(-45 52.707 43.73)" fill="#f6fafd" opacity="1" data-original="#f6fafd"></ellipse><ellipse cx="25.682" cy="10.708" rx=".825" ry="1.148" transform="rotate(-45 25.694 10.714)" fill="#f6fafd" opacity="1" data-original="#f6fafd"></ellipse><ellipse cx="27.427" cy="14.208" rx=".413" ry=".574" transform="rotate(-45 27.441 14.215)" fill="#f6fafd" opacity="1" data-original="#f6fafd"></ellipse></g><path d="M20 62c-9.925 0-18-8.972-18-20a30.476 30.476 0 0 1 3.752-14.606l4.74-10.494a26.4 26.4 0 0 0 1.621-5.159 6.622 6.622 0 0 1 4-4.979A3 3 0 0 0 19 9h2a3 3 0 0 0 2.889-2.235 6.668 6.668 0 0 1 3.893 4.484l1.937-.5A8.685 8.685 0 0 0 24 4.666V3a3 3 0 0 0-3-3h-2a3 3 0 0 0-3 3v1.671a8.723 8.723 0 0 0-5.854 6.712 24.468 24.468 0 0 1-1.492 4.728L3.964 26.5A32.373 32.373 0 0 0 0 42c0 12.131 8.973 22 20 22a18.633 18.633 0 0 0 10.564-3.314l-1.13-1.65A16.646 16.646 0 0 1 20 62zM18 3a1 1 0 0 1 1-1h2a1 1 0 0 1 1 1v3a1 1 0 0 1-1 1h-2a1 1 0 0 1-1-1z" fill="#000000" opacity="1" data-original="#000000"></path><path d="m28.9 15.337 1.878-.687a23.697 23.697 0 0 1-.615-1.91l-1.93.524c.181.651.398 1.329.667 2.073zM40.49 57.845l.542-.855.529-.834-.538.843-.707.707zM38.281 53.342l-1.5 1.321A17.49 17.49 0 0 0 39 56.781l1.247-1.564a15.467 15.467 0 0 1-1.966-1.875zM49.54 54.105a6.739 6.739 0 0 0 2.852-.621 7.234 7.234 0 0 0 3.7-4.18 11.231 11.231 0 0 0-.6-8.505c-2.385-5.091-7.652-7.691-11.738-5.793a7.24 7.24 0 0 0-3.7 4.182 11.225 11.225 0 0 0 .6 8.5c1.854 3.965 5.454 6.417 8.886 6.417zm-7.612-14.233a5.186 5.186 0 0 1 2.658-3.051 4.815 4.815 0 0 1 2.043-.444c2.661 0 5.526 2.032 7.043 5.271a9.227 9.227 0 0 1 .536 6.972 5.19 5.19 0 0 1-2.658 3.05c-3.09 1.437-7.167-.73-9.086-4.827a9.22 9.22 0 0 1-.536-6.971z" fill="#000000" opacity="1" data-original="#000000"></path><path d="m62.414 38.7-.043.02c-.16-.42-.329-.84-.523-1.254l-.474-1.014a28.865 28.865 0 0 0-6.856-9.252l-8.842-8.055-1.347 1.479 8.842 8.054a26.918 26.918 0 0 1 6.391 8.622l.475 1.013c3.187 6.8 1.22 14.629-4.575 18.2a13.024 13.024 0 0 1-13.9-.361l-1.072 1.693a15.747 15.747 0 0 0 8.442 2.513 14.488 14.488 0 0 0 4.941-.864l-.021.014a17.228 17.228 0 0 1-13.819 1.764A14.82 14.82 0 0 1 30.8 53.38l-.5-1.058A24.535 24.535 0 0 1 28 41.335l.242-17.662a6.557 6.557 0 0 1 2.258-4.768 7.89 7.89 0 0 0-.4 2.819l.712 16.489a28.785 28.785 0 0 0 2.714 11.178L34 50.405a18.281 18.281 0 0 0 1.177 2.131l1.682-1.082a16.4 16.4 0 0 1-1.048-1.9l-.475-1.014a26.8 26.8 0 0 1-2.528-10.415L32.1 21.638a5.353 5.353 0 0 1 2.951-5.183 5.409 5.409 0 0 1 5.894 1.083l1.392 1.267 1.346-1.479-1.391-1.267A7.4 7.4 0 0 0 34.2 14.64l-.01.006v-.006l-2.79 1.3a8.766 8.766 0 0 0-5.16 7.711L26 41.308a26.5 26.5 0 0 0 2.489 11.863l.5 1.058a16.807 16.807 0 0 0 10.461 8.955 18.515 18.515 0 0 0 5.439.816 19.594 19.594 0 0 0 9.984-2.769c8.069-4.796 11.311-14.48 7.541-22.531z" fill="#000000" opacity="1" data-original="#000000"></path></g></svg>