<svg xmlns="http://www.w3.org/2000/svg" version="1.1" xmlns:xlink="http://www.w3.org/1999/xlink" width="512" height="512" x="0" y="0" viewBox="0 0 512.001 512.001" style="enable-background:new 0 0 512 512" xml:space="preserve" class=""><g><path d="M185.334 144.438s-3.667-53.436 37.667-82.103 77.347-42.334 88.667-52.334c44 43.667 44.667 168.333-5.136 209.209 0 0-44.197 9.791-64.864 33.791-1.172-61.98-56.334-108.563-56.334-108.563z" style="" fill="#46c373" data-original="#46c373" class=""></path><circle cx="125.831" cy="386.171" r="115.83" style="" fill="#7d9bff" data-original="#7d9bff" class=""></circle><path d="M125.834 270.335c37.142 0 70.197 17.484 91.394 44.667 15.313-19.637 24.439-44.335 24.439-71.167 0-63.973-51.86-115.833-115.833-115.833S10.001 179.862 10.001 243.835c0 26.831 9.126 51.529 24.439 71.167 21.198-27.184 54.253-44.667 91.394-44.667z" style="" fill="#7d9bff" data-original="#7d9bff" class=""></path><path d="M332.168 216.35c-37.433 0-70.713 17.762-91.888 45.312-3.035 19.635-10.99 37.64-22.582 52.714-.054.349-.101.7-.151 1.05 15.117 19.569 24.122 44.101 24.122 70.743 0 5.695-.418 11.292-1.212 16.767 21.184 27.419 54.383 45.082 91.712 45.082 63.973 0 115.833-51.86 115.833-115.833S396.141 216.35 332.168 216.35z" style="" fill="#9bbeff" data-original="#9bbeff"></path><path d="M420.282 179.868c-50.781 0-75.986 36.482-75.986 36.482l.743.715c52.243 5.777 94.011 46.29 101.692 97.935l.001.001c55.269-41.68 55.269-152.902 55.269-152.902s-26 17.769-81.719 17.769z" style="" fill="#a5dc69" data-original="#a5dc69" class=""></path><path d="M106.989 375.212c-1.676 15.414 6.825 30.139 21.012 36.395-14.187 6.256-22.689 20.98-21.012 36.395-12.511-9.159-29.514-9.159-42.025 0 1.676-15.414-6.825-30.139-21.012-36.395 14.187-6.256 22.689-20.98 21.012-36.395 12.511 9.159 29.514 9.159 42.025 0zM360.473 329.966c-1.876 17.25 7.638 33.729 23.515 40.729-15.877 7.001-25.391 23.479-23.515 40.729-14.001-10.25-33.029-10.25-47.03 0 1.876-17.25-7.638-33.729-23.515-40.729 15.877-7.001 25.391-23.479 23.515-40.729 14.001 10.25 33.029 10.25 47.03 0zM146.847 158.518c-1.676 13.512 6.825 26.419 21.012 31.902-14.187 5.483-22.689 18.39-21.012 31.902-12.511-8.028-29.514-8.028-42.025 0 1.676-13.512-6.825-26.418-21.012-31.902 14.187-5.483 22.689-18.39 21.012-31.902 12.511 8.028 29.514 8.028 42.025 0z" style="" fill="#464b9b" data-original="#464b9b" class=""></path><path d="M132.036 402.456c-10.246-4.518-16.316-15.031-15.105-26.163a10.001 10.001 0 0 0-15.848-9.15c-9.034 6.616-21.176 6.615-30.21 0-3.197-2.339-7.475-2.572-10.907-.591s-5.37 5.802-4.941 9.741c1.21 11.132-4.86 21.646-15.106 26.163a10.002 10.002 0 0 0 0 18.3c10.246 4.518 16.316 15.031 15.106 26.163a10.001 10.001 0 0 0 15.848 9.15c9.034-6.615 21.176-6.615 30.21 0a10 10 0 0 0 15.848-9.15c-1.21-11.132 4.86-21.646 15.105-26.163 3.625-1.6 5.965-5.188 5.965-9.15s-2.34-7.55-5.965-9.15zm-33.84 30.315a45.315 45.315 0 0 0-24.438 0 45.318 45.318 0 0 0-12.219-21.164 45.3 45.3 0 0 0 12.219-21.164 45.295 45.295 0 0 0 24.438 0 45.318 45.318 0 0 0 12.219 21.164 45.3 45.3 0 0 0-12.219 21.164zM388.023 379.846a10.002 10.002 0 0 0 0-18.3c-11.943-5.266-19.019-17.522-17.608-30.498a10.001 10.001 0 0 0-15.848-9.149c-10.531 7.709-24.684 7.71-35.216-.001a10.002 10.002 0 0 0-15.848 9.15c1.411 12.976-5.665 25.232-17.608 30.498a10.002 10.002 0 0 0 0 18.3c11.943 5.266 19.02 17.522 17.608 30.498a10.001 10.001 0 0 0 15.848 9.15c10.533-7.713 24.685-7.711 35.216-.001a9.993 9.993 0 0 0 10.907.592 9.998 9.998 0 0 0 4.941-9.741c-1.411-12.975 5.665-25.232 17.608-30.498zm-36.527 16.029a49.528 49.528 0 0 0-29.076.001 49.526 49.526 0 0 0-14.538-25.181 49.534 49.534 0 0 0 14.538-25.18 49.544 49.544 0 0 0 29.076 0 49.527 49.527 0 0 0 14.538 25.18 49.527 49.527 0 0 0-14.538 25.18zM171.465 181.092c-9.898-3.826-15.803-12.403-14.694-21.343a10 10 0 0 0-15.325-9.647c-9.191 5.898-22.031 5.899-31.224 0a9.998 9.998 0 0 0-15.324 9.647c1.109 8.941-4.796 17.518-14.693 21.343a10 10 0 0 0 0 18.656c9.897 3.825 15.802 12.402 14.693 21.343a10 10 0 0 0 15.324 9.648c9.192-5.898 22.031-5.899 31.224 0a9.993 9.993 0 0 0 10.728.045 9.997 9.997 0 0 0 4.596-9.694c-1.109-8.94 4.796-17.517 14.694-21.343a10 10 0 0 0 .001-18.655zm-33.196 26.765a50.309 50.309 0 0 0-12.435-1.555c-4.187 0-8.373.519-12.434 1.555-2.002-6.56-5.777-12.547-10.989-17.438 5.211-4.891 8.987-10.879 10.989-17.438a50.505 50.505 0 0 0 24.87 0c2.002 6.56 5.777 12.547 10.989 17.438-5.213 4.891-8.988 10.879-10.99 17.438z" fill="#000000" opacity="1" data-original="#000000" class=""></path><path d="M85.971 401.601c-2.63 0-5.21 1.07-7.07 2.931a10.085 10.085 0 0 0-2.92 7.079c0 2.631 1.06 5.21 2.92 7.07 1.87 1.86 4.44 2.93 7.07 2.93 2.64 0 5.21-1.069 7.08-2.93a10.082 10.082 0 0 0 2.92-7.07c0-2.64-1.06-5.21-2.92-7.079a10.078 10.078 0 0 0-7.08-2.931zM336.961 364.952c-2.64 0-5.21 1.06-7.08 2.93a10.048 10.048 0 0 0-2.92 7.07c0 2.63 1.06 5.21 2.92 7.069a10.118 10.118 0 0 0 7.08 2.931c2.63 0 5.21-1.07 7.07-2.931a10.072 10.072 0 0 0 2.93-7.069c0-2.641-1.07-5.21-2.93-7.07s-4.44-2.93-7.07-2.93zM125.831 180.421c-2.63 0-5.21 1.06-7.07 2.93a10.058 10.058 0 0 0-2.93 7.07c0 2.63 1.07 5.21 2.93 7.07s4.44 2.93 7.07 2.93c2.64 0 5.21-1.07 7.07-2.93 1.87-1.86 2.93-4.44 2.93-7.07s-1.06-5.21-2.93-7.07a10.016 10.016 0 0 0-7.07-2.93zM430.665 394.265c-3.857-3.018-10.197-3.155-14.133 1.833l-.102.132c-3.853 5.053-2.14 11.16 1.741 14.145 1.711 1.315 3.9 2.067 6.146 2.067 2.85 0 5.793-1.211 7.971-4.018 3.894-5.021 2.233-11.142-1.623-14.159zM296.986 79.948c-3.912-3.898-10.244-3.887-14.142.026l-.418.419c-3.891 3.919-3.868 10.251.051 14.142a9.966 9.966 0 0 0 7.045 2.903 9.97 9.97 0 0 0 7.097-2.955l.393-.394c3.897-3.911 3.886-10.242-.026-14.141z" fill="#000000" opacity="1" data-original="#000000" class=""></path><path d="M512.001 162.099c0-3.708-2.024-7.131-5.304-8.862a9.947 9.947 0 0 0-10.282.568c-.242.161-24.796 16.062-76.133 16.062-45.403 0-72.178 26.289-80.993 36.688a127.344 127.344 0 0 0-7.121-.206c-.445 0-.887.014-1.33.019 13.426-20.877 21.639-49.665 23.201-82.764 2.382-50.463-11.154-96.713-35.327-120.702a10 10 0 0 0-13.665-.396c-4.005 3.538-13.774 8.679-25.085 14.632-16.347 8.604-38.735 20.386-62.659 36.979-30.811 21.368-39.199 54.441-41.355 74.305-15.365-6.697-32.311-10.421-50.113-10.421C56.45 118.001.001 174.45.001 243.835c0 25.761 7.631 50.212 22.096 71.196C8.168 335.281.001 359.787.001 386.168c0 69.385 56.449 125.833 125.834 125.833 56.276 0 104.038-37.134 120.078-88.185 23.185 21.924 53.699 34.201 86.255 34.201 19.444 0 38.094-4.319 55.43-12.837 4.957-2.436 7.001-8.429 4.565-13.386-2.436-4.956-8.429-6.998-13.385-4.565-14.569 7.158-30.251 10.788-46.611 10.788-31.678 0-61.064-13.82-81.26-38.048.497-4.534.76-9.137.76-13.801 0-26.381-8.167-50.888-22.096-71.137 10.284-14.918 17.108-31.587 20.19-49.239 15.064-18.697 35.493-31.427 58.288-36.703.402-.062.801-.149 1.196-.26a106.985 106.985 0 0 1 22.922-2.479C390.524 226.35 438 273.827 438 332.183c0 8.884-1.101 17.707-3.272 26.227-1.364 5.352 1.869 10.796 7.221 12.16.829.211 1.659.312 2.477.312 4.462 0 8.53-3.009 9.683-7.532a126.305 126.305 0 0 0 3.892-31.166c0-4.359-.224-8.666-.658-12.912 54.012-46.41 54.658-152.555 54.658-157.173zM125.835 492.001c-58.357 0-105.834-47.476-105.834-105.833s47.477-105.834 105.833-105.834 105.833 47.477 105.833 105.834c.001 58.357-47.476 105.833-105.832 105.833zm0-231.667c-35.474 0-67.561 14.76-90.457 38.456-10.085-16.501-15.377-35.273-15.377-54.955 0-58.357 47.477-105.834 105.834-105.834 58.356 0 105.833 47.477 105.833 105.833 0 5.386-.416 10.7-1.197 15.922-.06.311-.105.622-.135.935a104.111 104.111 0 0 1-14.044 38.098c-22.896-23.694-54.983-38.455-90.457-38.455zm126.019-25.065c-6.178-36.526.27-73.84 18.563-106.234 2.716-4.809 1.019-10.909-3.791-13.625s-10.909-1.019-13.624 3.791a180.999 180.999 0 0 0-20.686 57.659 126.823 126.823 0 0 0-37.041-37.91c.322-12.773 3.992-47.985 33.426-68.399 22.921-15.897 43.8-26.885 60.576-35.714 8.425-4.434 15.387-8.098 20.842-11.476 16.564 21.51 25.834 59.233 23.943 99.3-1.82 38.545-13.784 70.934-32.138 87.329a124.323 124.323 0 0 0-50.07 25.279zm164.759 3.704c11.451-6.412 24.29-9.763 37.735-9.763 5.523 0 10-4.477 10-10s-4.477-10-10-10c-19.813 0-38.584 5.792-54.73 16.789a125.216 125.216 0 0 0-35.865-15.634c10.894-9.204 29.721-20.498 56.53-20.498 33.336 0 56.782-6.153 70.938-11.553-2.107 27.812-9.892 84.738-38.58 117.518-6.69-22.129-19.317-41.705-36.028-56.859z" fill="#000000" opacity="1" data-original="#000000" class=""></path></g></svg>