<svg xmlns="http://www.w3.org/2000/svg" version="1.1" xmlns:xlink="http://www.w3.org/1999/xlink" width="512" height="512" x="0" y="0" viewBox="0 0 54 60" style="enable-background:new 0 0 512 512" xml:space="preserve" class=""><g><g fill="none" fill-rule="nonzero"><path fill="#ef314c" d="M25 45c-.002 1.13.135 2.255.41 3.35a14 14 0 1 1-9.39-23.31c1.407.096 2.79.41 4.1.93a14.026 14.026 0 0 1 8.47 9.68A13.945 13.945 0 0 0 25 45z" opacity="1" data-original="#ef314c" class=""></path><path fill="#bb193b" d="M28.59 35.65a14.026 14.026 0 0 0-8.47-9.68 13.616 13.616 0 0 0-4.1-.93c-.34-.03-.68-.04-1.02-.04a14.14 14.14 0 0 0-1.535.088c1.253.124 2.483.42 3.655.882a14.026 14.026 0 0 1 8.47 9.68A13.945 13.945 0 0 0 22 45c-.002 1.13.135 2.255.41 3.35a13.933 13.933 0 0 1-8.9 4.569 13.932 13.932 0 0 0 11.9-4.569A13.662 13.662 0 0 1 25 45a13.945 13.945 0 0 1 3.59-9.35z" opacity="1" data-original="#bb193b" class=""></path><path fill="#ef314c" d="M53 45a14 14 0 0 1-27.59 3.35A13.662 13.662 0 0 1 25 45a14.016 14.016 0 0 1 12.12-13.87A12.9 12.9 0 0 1 39 31a14.005 14.005 0 0 1 14 14z" opacity="1" data-original="#ef314c" class=""></path><path fill="#bb193b" d="M41.05 31.15a13.4 13.4 0 0 0-3.55-.061c.182.02.366.034.547.061a14 14 0 0 1-.529 27.764c.492.055.987.083 1.482.086 7.336.003 13.43-5.656 13.968-12.972S48.307 32.22 41.05 31.15z" opacity="1" data-original="#bb193b" class=""></path><path fill="#60a917" d="M52 4S41.84 16.01 41.05 31.15c-.679-.1-1.364-.15-2.05-.15a12.9 12.9 0 0 0-1.88.13C38.53 13.47 46 6 46 6a39.155 39.155 0 0 0-7.44 2.78c.44-1.07.75-1.97.94-2.56a.981.981 0 0 0-.44-1.15c-.29-.17-.67-.39-1.13-.64A42.578 42.578 0 0 1 49 1s2 0 3 3zM23.31 21.35a45.24 45.24 0 0 0-3.19 4.62 13.616 13.616 0 0 0-4.1-.93 47.961 47.961 0 0 1 2.76-4.31 19.95 19.95 0 0 0 4.53.62z" opacity="1" data-original="#60a917" class=""></path><path fill="#008a00" d="M39.5 6.22c-.19.59-.5 1.49-.94 2.56-1.55 3.77-4.77 9.66-10.22 11.74a13.63 13.63 0 0 1-5.03.83 19.95 19.95 0 0 1-4.53-.62 32.447 32.447 0 0 1-8.29-3.44 1 1 0 0 1-.44-1.16c.84-2.65 4.15-11.62 11.16-14.3 6.16-2.35 13.43.83 16.72 2.6.46.25.84.47 1.13.64.399.232.582.71.44 1.15z" opacity="1" data-original="#008a00"></path><path fill="#007900" d="M39.06 5.07c-.29-.17-.67-.39-1.13-.64-2.711-1.459-8.125-3.867-13.393-3.357A28.458 28.458 0 0 1 34.93 4.43c.46.25.84.47 1.13.64.399.232.582.71.44 1.15-.19.59-.5 1.49-.94 2.56-1.55 3.77-4.77 9.66-10.22 11.74a12.763 12.763 0 0 1-3.381.754c.448.041.9.07 1.351.076a13.63 13.63 0 0 0 5.03-.83c5.45-2.08 8.67-7.97 10.22-11.74.44-1.07.75-1.97.94-2.56a.981.981 0 0 0-.44-1.15z" opacity="1" data-original="#007900"></path><g fill="#f5f5f5" transform="translate(-1)"><path d="M30.861 41.939a1 1 0 0 1-.912-1.408A11.021 11.021 0 0 1 40 34a1 1 0 0 1 0 2 9.021 9.021 0 0 0-8.225 5.346 1 1 0 0 1-.914.593z" fill="#f5f5f5" opacity="1" data-original="#f5f5f5"></path><circle cx="30" cy="45" r="1" fill="#f5f5f5" opacity="1" data-original="#f5f5f5"></circle><path d="M6.861 35.939a1 1 0 0 1-.912-1.408A11.021 11.021 0 0 1 16 28a1 1 0 0 1 0 2 9.021 9.021 0 0 0-8.225 5.346 1 1 0 0 1-.914.593z" fill="#f5f5f5" opacity="1" data-original="#f5f5f5"></path><circle cx="6" cy="39" r="1" fill="#f5f5f5" opacity="1" data-original="#f5f5f5"></circle></g><path fill="#000000" d="M42.111 30.329c1.1-14.206 10.555-25.568 10.653-25.683a1 1 0 0 0 .184-.962C51.734.042 49.111 0 49 0a.908.908 0 0 0-.164.014 43.75 43.75 0 0 0-10.864 3.312C34.361 1.456 27.124-1.492 20.855.9 13.441 3.726 9.979 13.043 9.094 15.832a1.982 1.982 0 0 0 .883 2.314 33.918 33.918 0 0 0 7.194 3.176 45.997 45.997 0 0 0-1.7 2.7c-.156 0-.312-.019-.468-.019a15 15 0 1 0 9.952 26.209 14.992 14.992 0 1 0 17.159-19.88zm6.927-28.321c.253.042 1.168.3 1.822 1.808-1.846 2.328-9.655 12.916-10.72 26.242-.378-.029-.755-.058-1.14-.058-.257 0-.507.026-.761.039 1.589-16.172 8.4-23.262 8.468-23.332a1 1 0 0 0-.961-1.674 40.625 40.625 0 0 0-5.406 1.843c.04-.121.084-.251.117-.355.052-.171.08-.349.086-.528 0-.012.007-.022.007-.035v-.02a1.975 1.975 0 0 0-.49-1.327 41.757 41.757 0 0 1 8.978-2.603zM29.058 33.8a15.009 15.009 0 0 0-7.477-8.249 45.139 45.139 0 0 1 2.241-3.21 14.209 14.209 0 0 0 4.873-.884c5.611-2.14 8.957-8 10.638-11.93a37.912 37.912 0 0 1 3.937-1.646c-2.344 3.5-6 10.68-7.072 22.391a14.947 14.947 0 0 0-7.14 3.528zm-7.49-31.03A12.416 12.416 0 0 1 26.02 2 25.279 25.279 0 0 1 36.9 5.022c-4.739.271-12.469 1.48-18.518 6.189a1 1 0 1 0 1.228 1.578c6.167-4.8 14.291-5.708 18.58-5.824C37 10.3 33.841 17.352 27.982 19.586 21.406 22.1 13.318 17.8 11 16.436c.816-2.572 3.991-11.16 10.568-13.668zm-.142 19.454c-.6.833-1.172 1.68-1.717 2.543a14.4 14.4 0 0 0-2.044-.518 47.72 47.72 0 0 1 1.559-2.39c.718.153 1.455.278 2.202.363zM15 52C7.82 52 2 46.18 2 39s5.82-13 13-13c.311 0 .62.008.95.038 1.304.089 2.586.38 3.8.863a13.006 13.006 0 0 1 7.718 8.516 14.981 14.981 0 0 0-3.158 12.622A12.976 12.976 0 0 1 15 52zm24 6c-7.18 0-13-5.82-13-13s5.82-13 13-13 13 5.82 13 13c-.008 7.176-5.824 12.992-13 13z" opacity="1" data-original="#000000" class=""></path></g></g></svg>