<svg xmlns="http://www.w3.org/2000/svg" version="1.1" xmlns:xlink="http://www.w3.org/1999/xlink" width="512" height="512" x="0" y="0" viewBox="0 0 512 512" style="enable-background:new 0 0 512 512" xml:space="preserve" class=""><g><path fill="#ff8aa1" d="M268 456H112.88A88.889 88.889 0 0 1 24 367.12V352h240l2.77 72z" opacity="1" data-original="#ff8aa1"></path><path fill="#a36522" d="M342.906 235.283 368 160v-24l40 16-16 16-20.571 72z" opacity="1" data-original="#a36522"></path><path fill="#b9cd2a" d="M488 328a120 120 0 0 1-240 0 152.232 152.232 0 0 1 27.53-87.32l6.08-8.68 10.69-15.28a39.193 39.193 0 0 1 63.46-1.04A40.872 40.872 0 0 0 368 226.53a40.8 40.8 0 0 0 6.63-4.77 41.58 41.58 0 0 0 5.61-6.08 39.187 39.187 0 0 1 63.46 1.04l16.77 23.96A152.127 152.127 0 0 1 488 328z" opacity="1" data-original="#b9cd2a"></path><path fill="#acc221" d="M368 226.53a40.726 40.726 0 0 1-20.4 5.47h-65.99l10.69-15.28a39.193 39.193 0 0 1 63.46-1.04A40.872 40.872 0 0 0 368 226.53z" opacity="1" data-original="#acc221"></path><path fill="#b1712c" d="m368 136 16-16 24-64 24 8-24 64v24z" opacity="1" data-original="#b1712c"></path><path fill="#ff8aa1" d="m360 416-3.23 3.23a125.553 125.553 0 0 1-177.54 0l-1.18-1.18a117.343 117.343 0 0 1-34.36-82.36 115.092 115.092 0 0 1 1.35-18.47 117.427 117.427 0 0 1 42.69-73.8L192 240l144.56 151.44z" opacity="1" data-original="#ff8aa1"></path><path fill="#c1d439" d="M268 456H112.88A88.889 88.889 0 0 1 24 367.12V352h32v10.39A61.607 61.607 0 0 0 117.61 424h149.16z" opacity="1" data-original="#c1d439"></path><path fill="#b9cd2a" d="M344 136h-58.09a55.998 55.998 0 0 1-51.99-35.2l-11.67-29.18L216 56h58.09a55.998 55.998 0 0 1 51.99 35.2l12.41 31.03z" opacity="1" data-original="#b9cd2a"></path><path fill="#cde046" d="m360 416-3.23 3.23a125.553 125.553 0 0 1-177.54 0l-1.18-1.18a117.343 117.343 0 0 1-34.36-82.36l62.85 62.85a86.924 86.924 0 0 0 122.92 0l7.1-7.1z" opacity="1" data-original="#cde046"></path><path d="M450.254 212.131a47.05 47.05 0 0 0-57.987-15.943l6.855-23.995 14.535-14.534a7.99 7.99 0 0 0 2.328-5.657H416v-22.549l23.49-62.642a7.999 7.999 0 0 0-4.96-10.398l-24-8a8.002 8.002 0 0 0-10.02 4.78l-23.391 62.378-12.433 12.431h-15.27l-15.907-39.769a63.696 63.696 0 0 0-59.423-40.23H216a8 8 0 0 0-7.427 10.97l17.919 44.798a63.696 63.696 0 0 0 59.423 40.231h74.085v14.702l-13.03 39.093a47.07 47.07 0 0 0-61.224 14.334l-16.773 23.96a160.464 160.464 0 0 0-17.741 32.97l14.879 5.883a144.449 144.449 0 0 1 15.97-29.677l16.772-23.961a31.19 31.19 0 0 1 50.504-.827l2.432 3.242a32.388 32.388 0 0 1-4.193.281H328v16h19.596a49.043 49.043 0 0 0 39.048-19.524 31.19 31.19 0 0 1 50.504.829l16.772 23.96A143.58 143.58 0 0 1 480 328.002a112.127 112.127 0 0 1-112 112c-2.487 0-5.002-.082-7.475-.245l-1.049 15.966c2.82.185 5.688.28 8.524.28a128.145 128.145 0 0 0 128-128 159.499 159.499 0 0 0-28.972-91.912zm-58.764-89.32 21.294-56.781 8.81 2.937-21.085 56.226a8 8 0 0 0-.51 2.81v12.183l-17.764-7.105 7.422-7.422a7.988 7.988 0 0 0 1.833-2.848zm-72.837-28.635 7.778 19.446-24.612-17.58a42.922 42.922 0 0 0-25.088-8.04 27.213 27.213 0 0 1-17.39-6.296l-21.245-17.704h35.99a47.772 47.772 0 0 1 44.567 30.174zm-77.307 3.653-6.174-15.436 13.925 11.604a43.244 43.244 0 0 0 27.634 10.005 27.011 27.011 0 0 1 15.788 5.06l26.517 18.94h-33.122a47.772 47.772 0 0 1-44.568-30.173zm120.81 113.05a46.35 46.35 0 0 0-1.897-2.355l15.33-45.992a8.012 8.012 0 0 0 .41-2.53V147.82l17.765 7.105-7.422 7.422a8.01 8.01 0 0 0-2.035 3.459l-14.017 49.061a32.838 32.838 0 0 1-3.148 2.66z" fill="#000000" opacity="1" data-original="#000000"></path><path d="m448.107 276.796-10.45-10.45-11.315 11.313 10.451 10.45a15.416 15.416 0 0 1 1.92 19.4 31.17 31.17 0 0 0-4.66 23.557l2.594 12.964a44.351 44.351 0 0 1-3.803 28.395l14.31 7.155a60.429 60.429 0 0 0 5.182-38.688l-2.593-12.964a15.273 15.273 0 0 1 2.284-11.544 31.46 31.46 0 0 0-3.92-39.588zM388.168 408.757l15.993-7.996 7.152 14.304-15.993 7.996zM365.657 421.659a8.001 8.001 0 0 0 .13-11.18l-168-176a8 8 0 0 0-10.785-.724l-4.274 3.42a125.362 125.362 0 0 0-10.333 186.536l1.178 1.178a133.54 133.54 0 0 0 188.853 0zm-174.372-170.82 134.089 140.475-1.576 1.576a78.911 78.911 0 0 1-111.597 0l-60.471-60.471a109.02 109.02 0 0 1 39.555-81.58zm76.714 197.163a116.768 116.768 0 0 1-83.11-34.425l-1.179-1.178a109.616 109.616 0 0 1-29.693-55.065l46.87 46.869a94.912 94.912 0 0 0 134.226 0l1.312-1.312 12.36 12.95A116.72 116.72 0 0 1 268 448.002z" fill="#000000" opacity="1" data-original="#000000"></path><path d="M191.999 288.002h16v16h-16zM196.27 320.754l15.992-7.996 7.152 14.304-15.993 7.996zM210.282 362.33l15.998-15.997 11.312 11.312-15.998 15.997zM248.63 388.452l7.996-15.993 14.304 7.152-7.997 15.993zM280.643 379.48l14.304-7.152 7.996 15.993-14.304 7.152zM112.877 464.002H184v-16h-71.122A80.878 80.878 0 0 1 32 367.124v-7.122h16v2.388a69.612 69.612 0 0 0 69.613 69.612h34.387v-16h-34.387a53.612 53.612 0 0 1-53.613-53.612v-2.388h56v-16H24a8 8 0 0 0-8 8v15.122a96.877 96.877 0 0 0 96.878 96.878z" fill="#000000" opacity="1" data-original="#000000"></path><path d="m98.283 386.33 15.998-15.997 11.312 11.312-15.998 15.997z" fill="#000000" opacity="1" data-original="#000000"></path></g></svg>