<svg xmlns="http://www.w3.org/2000/svg" version="1.1" xmlns:xlink="http://www.w3.org/1999/xlink" width="512" height="512" x="0" y="0" viewBox="0 0 512 512" style="enable-background:new 0 0 512 512" xml:space="preserve" class=""><g><ellipse cx="337.637" cy="256" fill="#e89a5e" rx="166.863" ry="216.194" opacity="1" data-original="#e89a5e"></ellipse><path fill="#d68a5a" d="M504.498 255.997c0 119.398-53.159 216.2-166.859 216.2-8.632 0-16.875-.497-24.755-1.443 97.626-12.462 143.487-103.869 143.487-214.757 0-111.373-39.824-203.071-143.438-214.89 7.831-.861 16.063-1.297 24.706-1.297 121.083-.001 166.859 96.788 166.859 216.187z" opacity="1" data-original="#d68a5a" class=""></path><circle cx="169.512" cy="309.974" r="162.012" fill="#d68a5a" opacity="1" data-original="#d68a5a" class=""></circle><path fill="#c47a4a" d="M331.52 309.971c0 89.48-72.53 162.01-162.01 162.01-5.19 0-10.32-.24-15.39-.73 82.25-7.75 146.61-76.99 146.61-161.28 0-84.28-64.36-153.53-146.61-161.28 5.07-.49 10.2-.73 15.39-.73 89.48 0 162.01 72.54 162.01 162.01z" opacity="1" data-original="#c47a4a"></path><circle cx="169.512" cy="309.974" r="130.895" fill="#8dc637" opacity="1" data-original="#8dc637"></circle><path fill="#82b732" d="M300.41 309.971c0 72.29-58.61 130.9-130.9 130.9-5.63 0-11.19-.36-16.63-1.05 64.45-8.17 114.27-63.19 114.27-129.85s-49.82-121.67-114.27-129.84c5.44-.69 11-1.05 16.63-1.05 72.29 0 130.9 58.6 130.9 130.89z" opacity="1" data-original="#82b732"></path><path fill="#bcea73" d="M178.965 255.794c8.031-8.895 22.784-2.784 22.173 9.184-.385 7.537 5.832 13.754 13.369 13.369 11.969-.611 18.08 14.142 9.184 22.173-5.602 5.057-5.602 13.849 0 18.907 8.895 8.031 2.784 22.784-9.184 22.173-7.537-.385-13.754 5.832-13.369 13.369.611 11.969-14.142 18.08-22.173 9.184-5.057-5.602-13.849-5.602-18.907 0-8.031 8.895-22.784 2.784-22.173-9.184.385-7.537-5.832-13.754-13.369-13.369-11.969.611-18.08-14.142-9.184-22.173 5.602-5.057 5.602-13.849 0-18.907-8.895-8.031-2.784-22.784 9.184-22.173 7.537.385 13.754-5.832 13.369-13.369-.611-11.969 14.142-18.08 22.173-9.184 5.058 5.602 13.85 5.602 18.907 0z" opacity="1" data-original="#bcea73"></path><path fill="#a3e440" d="M227.93 328.771c0 6.74-5.4 13.24-13.42 12.83-.23-.01-.45-.02-.67-.02-7.24 0-13.08 6.08-12.7 13.39.01.24.02.48.02.72 0 11.49-14.32 17.18-22.19 8.46-2.44-2.7-5.74-4.1-9.07-4.19.46-1.3.72-2.74.72-4.27 0-.24-.01-.48-.02-.72-.38-7.31 5.46-13.39 12.7-13.39.22 0 .44.01.67.02 8.02.41 13.42-6.09 13.42-12.83 0-3.32-1.31-6.69-4.24-9.34-2.8-2.53-4.2-5.99-4.2-9.45 0-3.47 1.4-6.93 4.2-9.46 8.72-7.87 3.03-22.19-8.46-22.19-.24 0-.48.01-.72.02-7.31.37-13.39-5.47-13.39-12.7 0-.22.01-.45.02-.67.09-1.81-.17-3.49-.71-5 3.34-.09 6.64-1.49 9.08-4.19 8.03-8.89 22.78-2.78 22.17 9.19-.01.22-.02.45-.02.67 0 7.23 6.08 13.07 13.39 12.7.24-.01.48-.02.72-.02 11.49 0 17.18 14.32 8.46 22.19-2.8 2.53-4.2 5.99-4.2 9.46 0 3.46 1.4 6.92 4.2 9.45 2.93 2.65 4.24 6.02 4.24 9.34z" opacity="1" data-original="#a3e440"></path><path d="M472.68 98.913c-30.027-44.197-75.462-66.607-135.043-66.607-79.995 0-133.117 36.507-157.981 108.468-3.368-.2-6.749-.312-10.144-.312C76.043 140.462 0 216.505 0 309.974s76.043 169.512 169.512 169.512c28.802 0 56.773-7.272 81.561-20.891 24.341 13.988 53.438 21.099 86.564 21.099 15.814 0 30.992-1.845 45.112-5.484a7.5 7.5 0 1 0-3.744-14.525c-12.897 3.324-26.816 5.01-41.368 5.01-27.183 0-51.281-5.12-71.816-15.217a169.995 169.995 0 0 0 17.727-14.081c31.039-28.237 50.436-66.686 54.617-108.264a7.5 7.5 0 1 0-14.924-1.501c-7.963 79.16-74.051 138.855-153.729 138.855C84.313 464.486 15 395.172 15 309.974s69.313-154.512 154.512-154.512c80.229 0 146.357 60.156 153.822 139.928.387 4.124 4.029 7.162 8.167 6.769a7.501 7.501 0 0 0 6.769-8.166c-3.915-41.838-23.205-80.571-54.314-109.063-24.986-22.883-55.918-37.551-88.985-42.548 23.253-63.958 69.985-95.076 142.666-95.076C476.296 47.306 497 178.059 497 256c0 93.591-32.761 163.974-89.882 193.101a7.5 7.5 0 0 0 6.815 13.363C476.256 430.684 512 355.431 512 256c0-64.904-13.597-119.224-39.32-157.087z" fill="#000000" opacity="1" data-original="#000000"></path><path d="M71.211 223.218a7.499 7.499 0 0 0-10.531 1.257c-19.34 24.585-29.563 54.149-29.563 85.499 0 76.311 62.084 138.395 138.395 138.395 76.312 0 138.396-62.084 138.396-138.395s-62.084-138.395-138.396-138.395c-31.162 0-60.59 10.117-85.103 29.257a7.499 7.499 0 0 0-1.295 10.527 7.499 7.499 0 0 0 10.527 1.295c21.85-17.061 48.085-26.079 75.87-26.079 68.04 0 123.396 55.355 123.396 123.395s-55.355 123.395-123.396 123.395S46.117 378.014 46.117 309.974c0-27.952 9.112-54.31 26.352-76.224a7.5 7.5 0 0 0-1.258-10.532z" fill="#000000" opacity="1" data-original="#000000"></path><path d="M105.172 283.323c-3.32 8.015-1.304 16.95 5.135 22.764a5.19 5.19 0 0 1 1.728 3.887c0 .869-.225 2.53-1.728 3.886-6.439 5.814-8.455 14.75-5.135 22.765 3.32 8.016 11.075 12.915 19.728 12.465a5.258 5.258 0 0 1 3.969 1.527 5.185 5.185 0 0 1 1.527 3.969c-.442 8.665 4.45 16.408 12.466 19.728a20.464 20.464 0 0 0 7.842 1.578c5.57 0 10.969-2.333 14.922-6.713a5.192 5.192 0 0 1 3.888-1.728 5.19 5.19 0 0 1 3.886 1.728c5.813 6.44 14.752 8.455 22.765 5.135 8.016-3.32 12.908-11.063 12.466-19.729-.104-2.021.912-3.354 1.526-3.968s1.928-1.632 3.97-1.527c8.7.444 16.408-4.451 19.728-12.465 3.32-8.015 1.305-16.951-5.136-22.765-1.502-1.356-1.727-3.017-1.727-3.886s.225-2.53 1.727-3.887c6.439-5.813 8.456-14.749 5.136-22.764-3.32-8.016-11.073-12.919-19.728-12.466a5.207 5.207 0 0 1-3.97-1.527 5.185 5.185 0 0 1-1.526-3.969c.442-8.665-4.451-16.409-12.467-19.729-8.014-3.32-16.95-1.304-22.764 5.135a5.188 5.188 0 0 1-3.886 1.728 5.19 5.19 0 0 1-3.887-1.728c-5.814-6.44-14.75-8.454-22.764-5.135-8.016 3.32-12.909 11.064-12.467 19.728a5.186 5.186 0 0 1-1.527 3.97c-.614.614-1.932 1.63-3.97 1.526-8.645-.451-16.408 4.452-19.727 12.467zm18.962 2.515a20.272 20.272 0 0 0 15.341-5.9 20.27 20.27 0 0 0 5.901-15.342c-.17-3.331 2.199-4.679 3.226-5.104 1.026-.427 3.656-1.146 5.89 1.329 3.831 4.243 9.306 6.676 15.021 6.676s11.189-2.433 15.021-6.676c2.233-2.475 4.862-1.754 5.89-1.329 1.026.425 3.396 1.774 3.226 5.104a20.267 20.267 0 0 0 5.899 15.341 20.27 20.27 0 0 0 15.342 5.901c3.329-.165 4.68 2.199 5.104 3.226.426 1.026 1.147 3.655-1.329 5.89a20.272 20.272 0 0 0-6.675 15.021c0 5.715 2.434 11.19 6.675 15.02 2.477 2.235 1.755 4.864 1.329 5.891-.425 1.026-1.764 3.399-5.104 3.225a20.234 20.234 0 0 0-15.343 5.902 20.267 20.267 0 0 0-5.899 15.34c.17 3.331-2.199 4.679-3.226 5.104-1.028.424-3.657 1.146-5.89-1.329a20.271 20.271 0 0 0-15.021-6.676 20.27 20.27 0 0 0-15.021 6.676c-2.232 2.475-4.861 1.754-5.89 1.329-1.026-.425-3.396-1.774-3.226-5.105a20.273 20.273 0 0 0-5.9-15.341 20.272 20.272 0 0 0-15.341-5.901c-3.29.171-4.679-2.198-5.104-3.225-.426-1.026-1.147-3.655 1.328-5.891 4.242-3.83 6.676-9.304 6.676-15.02s-2.433-11.19-6.676-15.021c-2.476-2.235-1.754-4.864-1.328-5.89.425-1.026 1.811-3.393 5.104-3.225zM177.012 227.455v-16.552c0-4.142-3.357-7.5-7.5-7.5s-7.5 3.358-7.5 7.5v16.552c0 4.142 3.357 7.5 7.5 7.5s7.5-3.358 7.5-7.5zM162.012 392.493v16.552c0 4.142 3.357 7.5 7.5 7.5s7.5-3.358 7.5-7.5v-16.552c0-4.142-3.357-7.5-7.5-7.5s-7.5 3.358-7.5 7.5zM234.263 234.616l-11.704 11.705a7.498 7.498 0 0 0 .001 10.606c1.464 1.465 3.384 2.197 5.303 2.197s3.839-.732 5.304-2.197l11.704-11.705a7.501 7.501 0 0 0-10.608-10.606zM105.858 363.02l-11.704 11.705a7.498 7.498 0 0 0 .001 10.606c1.464 1.465 3.384 2.197 5.303 2.197s3.839-.732 5.304-2.197l11.704-11.705a7.501 7.501 0 0 0-10.608-10.606zM244.531 309.974a7.5 7.5 0 0 0 7.5 7.5h16.553c4.143 0 7.5-3.358 7.5-7.5s-3.357-7.5-7.5-7.5h-16.553a7.5 7.5 0 0 0-7.5 7.5zM70.44 302.474c-4.143 0-7.5 3.358-7.5 7.5s3.357 7.5 7.5 7.5h16.553c4.143 0 7.5-3.358 7.5-7.5s-3.357-7.5-7.5-7.5zM233.166 363.02a7.5 7.5 0 0 0-10.606 0 7.498 7.498 0 0 0-.001 10.606l11.704 11.705a7.476 7.476 0 0 0 5.304 2.197 7.474 7.474 0 0 0 5.303-2.197 7.498 7.498 0 0 0 .001-10.606zM104.762 234.616a7.498 7.498 0 0 0-10.606 0 7.498 7.498 0 0 0-.001 10.606l11.704 11.705a7.476 7.476 0 0 0 5.304 2.197 7.474 7.474 0 0 0 5.303-2.197 7.498 7.498 0 0 0 .001-10.606zM133.738 231.104a7.501 7.501 0 0 0 6.927-10.371l-2.136-5.158a7.5 7.5 0 0 0-13.86 5.738l2.136 5.158a7.504 7.504 0 0 0 6.933 4.633zM202.418 389.416a7.5 7.5 0 0 0-4.059 9.799l2.137 5.158a7.5 7.5 0 1 0 13.858-5.74l-2.137-5.158a7.5 7.5 0 0 0-9.799-4.059zM205.285 231.104a7.504 7.504 0 0 0 6.932-4.632l2.137-5.158a7.498 7.498 0 0 0-4.059-9.799 7.502 7.502 0 0 0-9.799 4.059l-2.137 5.158a7.498 7.498 0 0 0 4.059 9.799c.938.389 1.91.573 2.867.573zM126.806 393.476l-2.136 5.158a7.5 7.5 0 0 0 13.86 5.738l2.136-5.158a7.5 7.5 0 0 0-13.86-5.738zM255.887 281.699c.956 0 1.929-.184 2.867-.573l5.158-2.137a7.5 7.5 0 0 0 4.059-9.799 7.498 7.498 0 0 0-9.799-4.059l-5.158 2.137a7.5 7.5 0 0 0-4.059 9.799 7.5 7.5 0 0 0 6.932 4.632zM80.271 338.821l-5.158 2.137a7.5 7.5 0 0 0-4.059 9.799 7.5 7.5 0 0 0 9.799 4.059l5.158-2.137a7.5 7.5 0 0 0-5.74-13.858zM258.754 338.821a7.503 7.503 0 0 0-9.799 4.059 7.498 7.498 0 0 0 4.059 9.799l5.158 2.137c.938.389 1.91.573 2.867.573a7.504 7.504 0 0 0 6.932-4.632 7.498 7.498 0 0 0-4.059-9.799zM86.011 267.268l-5.158-2.137a7.502 7.502 0 0 0-9.799 4.059 7.498 7.498 0 0 0 4.059 9.799l5.158 2.137c.938.389 1.91.573 2.867.573a7.5 7.5 0 0 0 2.873-14.431zM448.063 214.629H448.203a7.5 7.5 0 0 0 .034-15H448.097a7.5 7.5 0 0 0-.034 15zM423.611 197.712h.103c4.143 0 7.5-3.358 7.5-7.5s-3.357-7.5-7.5-7.5h-.103a7.5 7.5 0 0 0 0 15zM423.627 131.546H423.767a7.5 7.5 0 0 0 .034-15H423.661a7.5 7.5 0 0 0-.034 15z" fill="#000000" opacity="1" data-original="#000000"></path></g></svg>