<svg xmlns="http://www.w3.org/2000/svg" version="1.1" xmlns:xlink="http://www.w3.org/1999/xlink" width="512" height="512" x="0" y="0" viewBox="0 0 512 512" style="enable-background:new 0 0 512 512" xml:space="preserve" class=""><g><path fill="#f5ce31" d="M338.746 113.242c7.505-16.585 4.449-36.783-9.184-50.416s-33.831-16.69-50.416-9.184C216.059 21.273 129.642 37.534 68.664 98.513 7.685 159.491-8.576 245.908 23.792 308.994c-7.505 16.585-4.449 36.783 9.184 50.416s33.831 16.69 50.416 9.184c63.086 32.368 149.503 16.107 210.482-44.872s77.24-147.394 44.872-210.48z" opacity="1" data-original="#f5ce31"></path><path d="M201.792 378.152c76.083-19.028 144.915-97.683 151.926-173.59-105.133-70.621-237.492 18.453-216.954 139.497C19.827 287.418 36.84 127.453 140.948 50.69 34.034 93.296-22.542 217.166 23.792 308.994c-17.211 40.769 24.251 75.612 59.592 59.604 34.353 17.786 77.999 20.937 118.408 9.554z" opacity="1" fill="#00000015" data-original="#00000015"></path><path fill="#57a633" d="M425.695 229.062c53.76-18.268 79.142-86.631 79.142-86.631s-61.779-38.744-115.539-20.476-52.213 77.48-52.213 77.48 34.85 47.895 88.61 29.627z" opacity="1" data-original="#57a633"></path><path fill="#407a26" d="M504.844 142.431s-61.792-38.742-115.54-20.475c-53.76 18.262-52.225 77.482-52.225 77.482z" opacity="1" data-original="#407a26"></path><path fill="#57a633" d="M403.318 160.148c25.096-50.932-5.296-117.22-5.296-117.22s-71.081 16.288-96.177 67.22 17.867 91.707 17.867 91.707 58.509 9.224 83.606-41.707z" opacity="1" data-original="#57a633"></path><path fill="#407a26" d="M398.027 42.924s-71.089 16.299-96.177 67.221c-25.101 50.928 17.859 91.717 17.859 91.717z" opacity="1" data-original="#407a26"></path><path fill="#f5ce31" d="M317.373 171.609c-83.691 0-151.536 67.845-151.536 151.536 0 4.897.241 9.737.696 14.515-7.82 7.319-12.715 17.726-12.715 29.282 0 21.201 16.453 38.547 37.285 39.996 27.149 40.829 73.563 67.743 126.269 67.743 83.691 0 151.536-67.845 151.536-151.536s-67.845-151.536-151.535-151.536z" opacity="1" data-original="#f5ce31"></path><ellipse cx="342.612" cy="317.873" fill="#f5ce31" rx="133.568" ry="149.384" transform="rotate(-18.38 341.858 317.523)" opacity="1" data-original="#f5ce31"></ellipse><ellipse cx="342.612" cy="317.873" fill="#fff7d8" rx="117.969" ry="131.937" transform="rotate(-18.38 341.858 317.523)" opacity="1" data-original="#fff7d8"></ellipse><g fill="#f5ce31"><path d="m314.237 221.248 21.09 69.446c2.848 9.38-7.481 17.259-15.775 12.033l-56.719-35.745c-4.737-2.985-6.389-9.176-3.636-14.052 9.453-16.74 23.295-30.226 40.532-38.25 5.8-2.7 12.649.447 14.508 6.568z" fill="#f5ce31" opacity="1" data-original="#f5ce31"></path><path d="M321.414 324.611 261.1 342.927c-5.901 1.792-12.141-1.805-13.413-7.839-4.426-20.994-3.375-41.806 2.243-60.373 2.028-6.702 9.869-9.646 15.792-5.912l58.261 36.722c7.672 4.836 6.109 16.451-2.569 19.086z" fill="#f5ce31" opacity="1" data-original="#f5ce31"></path><path d="m334.16 339.047-28.001 62.907c-2.847 6.397-11.001 8.31-16.413 3.867-14.994-12.309-27.44-29.016-35.434-48.919-2.298-5.723.888-12.183 6.789-13.975l60.312-18.316c8.677-2.635 16.435 6.15 12.747 14.436z" fill="#f5ce31" opacity="1" data-original="#f5ce31"></path><path d="m351.835 345.054 21.09 69.445c1.859 6.122-2.084 12.546-8.406 13.527-22.026 3.417-44.348-2.002-63.652-14.168l-.003-.009 31.169-70.024c3.987-8.955 16.954-8.151 19.802 1.229z" fill="#f5ce31" opacity="1" data-original="#f5ce31"></path><path d="m432.463 373.885.003.009c-9.286 20.849-24.821 37.765-45.032 47.174-5.8 2.7-12.65-.447-14.509-6.568l-21.09-69.448c-2.848-9.379 7.481-17.259 15.774-12.033zM439.486 300.668c4.422 20.986 3.366 41.793-2.249 60.359-2.027 6.703-9.868 9.648-15.792 5.914l-58.252-36.711c-7.673-4.836-6.11-16.451 2.568-19.087l60.311-18.316c5.902-1.791 12.143 1.806 13.414 7.841z" fill="#f5ce31" opacity="1" data-original="#f5ce31"></path><path d="m426.073 292.828-60.314 18.316c-8.678 2.635-16.436-6.149-12.749-14.435l28.001-62.916c2.847-6.397 11.002-8.311 16.414-3.867 14.99 12.308 27.44 29.018 35.436 48.927 2.299 5.722-.887 12.183-6.788 13.975z" fill="#f5ce31" opacity="1" data-original="#f5ce31"></path><path d="m382.4 230.673-27.268 61.26c-3.986 8.956-16.954 8.151-19.802-1.229l-21.093-69.456c-1.859-6.121 2.084-12.545 8.405-13.527 18.792-2.918 37.794.594 54.964 9.25 5.001 2.521 7.071 8.586 4.794 13.702z" fill="#f5ce31" opacity="1" data-original="#f5ce31"></path><ellipse cx="342.612" cy="317.873" rx="12.833" ry="14.352" transform="rotate(-18.38 341.858 317.523)" fill="#f5ce31" opacity="1" data-original="#f5ce31"></ellipse></g><path d="M192.084 81.791a9.31 9.31 0 0 0 10.744-10.744c-.632-3.853-3.74-6.961-7.594-7.593a9.31 9.31 0 0 0-10.743 10.743c.631 3.854 3.739 6.962 7.593 7.594zM151.907 100.387a9.31 9.31 0 0 0 10.744-10.743c-.632-3.854-3.74-6.961-7.594-7.593a9.31 9.31 0 0 0-10.743 10.743c.632 3.853 3.74 6.961 7.593 7.593zM226.904 96.01a9.31 9.31 0 0 0-10.743-10.743c-3.853.632-6.961 3.74-7.594 7.594a9.31 9.31 0 0 0 10.744 10.743c3.853-.632 6.961-3.741 7.593-7.594zM168.974 115.299a9.31 9.31 0 0 0 10.743 10.744c3.854-.632 6.962-3.74 7.594-7.593a9.31 9.31 0 0 0-10.743-10.744c-3.854.632-6.962 3.739-7.594 7.593z" fill="#000000" opacity="1" data-original="#000000" class=""></path><path d="M511.544 144.966a7.285 7.285 0 0 0-2.96-8.708c-.508-.319-12.682-7.902-30.997-14.899a7.285 7.285 0 0 0-9.685 5.102c-.886 3.611 1.284 7.281 4.755 8.613 9.913 3.804 17.926 7.82 22.839 10.479-6.124 13.655-24.043 48.634-53.98 67.717-12.12-13.542-26.377-24.925-42.312-33.553 12.622-15.309 19.362-36.345 20.826-55.355 8.205-.028 16.848.883 25.896 2.761a7.29 7.29 0 0 0 8.743-6.53c.327-3.73-2.415-7.046-6.083-7.8-9.781-2.01-19.182-2.995-28.178-2.997-.904-36.626-15.01-67.986-15.889-69.904a7.283 7.283 0 0 0-8.249-4.065c-1.903.436-30.726 7.256-58.475 25.404-14.151-17.096-37.872-23.247-58.481-15.583C220.833 17.289 149.81 29.536 95.778 66.456c-2.873 1.963-4.212 5.66-2.882 8.876 1.843 4.458 7.143 5.87 10.889 3.301 54.927-37.641 120.797-44.732 171.911-18.509a7.28 7.28 0 0 0 6.329.156c15.06-6.83 33.106-2.902 43.948 9.503-29.521 23.634-47.518 58.347-35.733 96.85-79.153 13.6-137.48 85.822-131.373 168.302-10.41 11.361-14.746 27.533-11.259 42.57-21.435-.725-42.22-5.747-61.013-15.39a7.293 7.293 0 0 0-6.329-.156c-14.232 6.442-31.216 3.349-42.261-7.698-11.046-11.045-14.139-28.028-7.699-42.262a7.282 7.282 0 0 0-.156-6.329c-31.604-61.597-13.773-144.55 43.353-201.817 2.445-2.451 3.091-6.3 1.218-9.211a7.297 7.297 0 0 0-11.334-1.281C7.006 149.723-19.041 237.5 15.673 309.286c-7.064 19-2.438 40.811 12.027 55.277 14.465 14.464 36.273 19.087 55.276 12.026 21.279 10.294 45.424 15.559 70.46 15.558.097 0 .194-.004.29-.004 7.209 11.408 19.147 19.606 33.119 21.67 29.754 42.743 78.243 68.154 130.403 68.154 20.698 0 40.48-3.988 58.629-11.224a129.235 129.235 0 0 0 15.883-4.151c29.801-9.873 54.464-29.875 71.323-57.844a7.286 7.286 0 0 0-12.48-7.522c-15.038 24.95-36.97 42.771-63.425 51.536-31.871 10.558-66.496 6.57-97.496-11.232-65.033-37.347-92.967-123.194-63.386-191.322 14.237-32.79 39.631-56.663 71.502-67.222 31.872-10.559 66.496-6.571 97.496 11.232 31.265 17.956 55.083 47.767 67.068 83.94 9.714 29.319 10.73 59.923 2.938 88.504-1.194 4.381 1.876 8.92 6.687 9.201 3.472.203 6.532-2.268 7.442-5.625 8.473-31.282 7.355-64.7-3.235-96.662-5.934-17.911-14.546-34.399-25.374-48.922 40.624-26.685 59.797-77.193 60.724-79.688zM393.592 51.665c8.817 21.528 24.774 86.235-8.008 121.546-27.824-11.751-52.219-10.898-80.631-8.415-20.493-65.225 54.45-102.885 88.639-113.131zm-80.848 415.66c-46.687-1.445-89.681-25.294-115.698-64.421a7.287 7.287 0 0 0-5.561-3.235c-29.11-2.033-40.357-37.764-20.073-56.713 1.639-1.531 2.46-3.755 2.249-5.987-5.442-57.567 23.752-110.686 70.622-138.217-83.094 80.091-42.475 235.019 68.461 268.573z" fill="#000000" opacity="1" data-original="#000000" class=""></path><path d="M444.086 363.135c6.123-20.251 6.955-42.372 2.405-63.969v-.001a17.74 17.74 0 0 0-6.044-9.976 1.317 1.317 0 0 1-.425-1.4 17.736 17.736 0 0 0-.524-11.651c-8.229-20.491-21.222-38.417-37.574-51.843-3.326-2.732-7.404-4.138-11.587-4.073a1.312 1.312 0 0 1-1.24-.81 17.608 17.608 0 0 0-8.337-8.947c-19.011-9.584-39.537-13.021-59.36-9.944-4.306.668-8.172 2.911-10.92 6.243a1.318 1.318 0 0 1-1.406.427c-4.136-1.241-8.596-.956-12.547.883a93.074 93.074 0 0 0-11.665 6.494c-3.355 2.197-4.544 6.746-2.401 10.136a7.287 7.287 0 0 0 10.173 2.193 78.64 78.64 0 0 1 10.042-5.613c2.023-.942 3.724-.022 4.462 2.08l21.09 69.446c.857 3.222-2.036 5.428-4.917 3.754l-56.721-35.747c-1.467-.924-1.995-2.855-1.175-4.305a92.014 92.014 0 0 1 7.108-10.766c2.275-2.964 2.255-7.237-.395-9.871a7.287 7.287 0 0 0-10.923.687 106.661 106.661 0 0 0-8.478 12.785 17.598 17.598 0 0 0-1.949 12.096 1.313 1.313 0 0 1-.579 1.365 17.712 17.712 0 0 0-7.369 9.798c-6.125 20.244-6.955 42.37-2.399 63.985a17.74 17.74 0 0 0 6.044 9.974c.414.343.578.886.425 1.401a17.739 17.739 0 0 0 .524 11.652c8.228 20.488 21.221 38.411 37.573 51.835a17.835 17.835 0 0 0 7.574 3.667c.62.134 1.101.609 1.316 1.205a7.314 7.314 0 0 0 2.97 3.698c20.971 13.216 45.124 18.856 68.654 15.204 4.304-.668 8.169-2.91 10.917-6.24a1.32 1.32 0 0 1 1.41-.427 17.621 17.621 0 0 0 12.545-.886c21.136-9.839 38.4-27.886 48.613-50.815a7.14 7.14 0 0 0 .194-5.38.563.563 0 0 1 .136-.603 17.777 17.777 0 0 0 4.76-7.741zm-56.542-126.38c1.1-2.295 3.458-2.575 5.134-1.199 14.645 12.024 26.264 28.183 33.569 46.693.601 1.523-.191 3.074-1.784 3.455-.458.11-60.396 18.322-60.945 18.467-2.98.787-5.137-1.608-3.976-4.5zm-66.461-17.625c-.558-2.15.374-3.871 2.553-4.21 17.278-2.685 34.407.404 50.566 8.556 1.487.75 2.122 2.649 1.417 4.233l-27.268 61.259c-1.461 2.997-5.096 2.773-6.175-.383l-.003-.009v-.001zm25.919 112.367c-6.728 2.229-14.203-2.064-16.695-9.588-2.493-7.524.94-15.431 7.668-17.66s14.202 2.064 16.695 9.588-.94 15.431-7.668 17.66zm-92.312 2.088c-4.053-19.225-3.331-38.852 2.088-56.76.734-2.425 3.12-3 4.934-1.859 7.729 4.86 52.823 33.001 58.259 36.715 2.575 1.759 2.125 4.94-.8 5.953l-60.313 18.322c-2.089.544-3.728-.286-4.168-2.371zm39.554 66.605c-14.464-11.874-25.978-27.782-33.296-46.004-.79-1.968.101-3.581 2.146-4.287l60.311-18.316c2.67-.773 5.188 1.586 3.976 4.501l-28.002 62.908c-1.088 2.206-3.216 2.774-5.135 1.198zm69.034 20.638c-17.289 2.68-35.56-.647-52.17-9.391a1.297 1.297 0 0 1-.575-1.672l28.032-62.977c1.493-2.977 5.137-2.61 6.174.383l21.089 69.446c.58 2.2-.361 3.871-2.55 4.211zm20.956-6.365c-1.998.93-3.728.035-4.462-2.079l-.001-.003-21.089-69.445-.001-.002v-.001c-.905-3.397 2.395-5.339 4.919-3.752l55.789 35.154c2.016 1.271 2.689 3.918 1.486 5.975-8.907 15.237-21.648 27.173-36.641 34.153zm45.905-55.544c-.715 2.365-2.788 3.096-4.934 1.859l-58.252-36.711c-2.525-1.727-2.152-4.937.801-5.952l60.311-18.316c1.835-.527 3.692.321 4.167 2.372v-.001c4.048 19.209 3.324 38.832-2.093 56.749z" fill="#000000" opacity="1" data-original="#000000" class=""></path></g></svg>