<svg xmlns="http://www.w3.org/2000/svg" version="1.1" xmlns:xlink="http://www.w3.org/1999/xlink" width="512" height="512" x="0" y="0" viewBox="0 0 60 60" style="enable-background:new 0 0 512 512" xml:space="preserve" class=""><g><g fill="none" fill-rule="nonzero"><path fill="#ff9801" d="M54 32c0 20-25 27-35 27S1 57 1 50s3-7 7-19S13 8 30 8c5.45 0 10.9.83 15.23 3.6v.01a16.434 16.434 0 0 1 3.05 2.5C51.78 17.75 54 23.39 54 32z" opacity="1" data-original="#ff9801" class=""></path><path fill="#f57c00" d="M48.28 14.11a16.434 16.434 0 0 0-3.05-2.5v-.01C40.9 8.83 35.45 8 30 8c-.509 0-1 .011-1.481.031 4.934.148 9.781 1.057 13.711 3.569v.01a16.434 16.434 0 0 1 3.05 2.5C48.78 17.75 51 23.39 51 32c0 19.313-23.309 26.5-33.915 26.973.629.018 1.267.027 1.915.027 10 0 35-7 35-27 0-8.61-2.22-14.25-5.72-17.89z" opacity="1" data-original="#f57c00" class=""></path><path fill="#60a917" d="M59 5.4s-.78 6.1-4.66 8.2a8.944 8.944 0 0 1-6.06.51 16.434 16.434 0 0 0-3.05-2.5v-.01c.48-.89.807-1.853.97-2.85a8.262 8.262 0 0 1 3.39-3.95c3.88-2.1 9.41.6 9.41.6z" opacity="1" data-original="#60a917" class=""></path><path fill="#549414" d="M51.658 4.12A16.3 16.3 0 0 1 56 5.4s-.78 6.1-4.66 8.2a6.591 6.591 0 0 1-2.072.682 8.262 8.262 0 0 0 5.072-.682C58.22 11.5 59 5.4 59 5.4s-3.823-1.858-7.342-1.28z" opacity="1" data-original="#549414" class=""></path><path fill="#f5f5f5" d="M13.191 28.836a1 1 0 0 1-.956-1.292c2.84-9.286 4.716-15.42 14.666-16.4a.99.99 0 0 1 1.094.9 1 1 0 0 1-.9 1.094c-8.625.851-10.162 5.876-12.952 15a1 1 0 0 1-.952.698z" opacity="1" data-original="#f5f5f5"></path><circle cx="31" cy="12" r="1" fill="#f5f5f5" opacity="1" data-original="#f5f5f5"></circle><path fill="#000000" d="M59.438 4.5c-.245-.12-6.042-2.9-10.322-.583a7.555 7.555 0 0 0-2.024 1.616 9.649 9.649 0 0 0-3.451-5.3 1.001 1.001 0 1 0-1.282 1.538 7.066 7.066 0 0 1 2.854 6.822c-.09.55-.238 1.09-.44 1.609C40.941 8.072 36.037 7 30 7 14.336 7 11.59 15.979 8.41 26.374a183.561 183.561 0 0 1-1.358 4.31A59.846 59.846 0 0 1 2.546 41.1C1.013 43.97 0 45.866 0 50c0 6.729 6.215 10 19 10 9.612 0 36-6.636 36-28 0-7.052-1.457-12.564-4.365-16.612.062 0 .128.011.19.011a8.34 8.34 0 0 0 3.99-.92c4.285-2.317 5.142-8.679 5.177-8.952a1 1 0 0 0-.554-1.027zM19 58C7.561 58 2 55.383 2 50c0-3.633.82-5.17 2.311-7.96a62.3 62.3 0 0 0 4.637-10.724c.491-1.473.938-2.932 1.374-4.357C13.392 16.925 15.816 9 30 9c15.691 0 23 7.309 23 23 0 19.6-25.286 26-34 26zm34.865-45.28a7.8 7.8 0 0 1-5.054.474 17.619 17.619 0 0 0-2.324-1.913c.302-.7.523-1.433.66-2.184a7.135 7.135 0 0 1 2.918-3.417c2.634-1.427 6.3-.263 7.81.328-.334 1.583-1.375 5.286-4.01 6.712z" opacity="1" data-original="#000000" class=""></path></g></g></svg>