<svg xmlns="http://www.w3.org/2000/svg" version="1.1" xmlns:xlink="http://www.w3.org/1999/xlink" width="512" height="512" x="0" y="0" viewBox="0 0 480 480" style="enable-background:new 0 0 512 512" xml:space="preserve" class=""><g><path fill="#f98500" d="M375.27 288c0 101.621-82.38 184-184 184-101.622 0-184-82.379-184-184s82.378-184 184-184c101.62 0 184 82.379 184 184zm0 0" opacity="1" data-original="#f98500" class=""></path><path fill="#f27900" d="M320.758 157.305c-32 183.062-152.64 254.222-234.617 281.672 78.347 54.378 185.261 39.882 246.296-33.395 61.04-73.281 55.97-181.055-11.68-248.277zm0 0" opacity="1" data-original="#f27900" class=""></path><g fill="#e66000"><path d="M287.27 200h16v16h-16zM319.27 248h16v16h-16zM239.27 360h16v16h-16zM287.27 368h16v16h-16zM215.27 408h16v16h-16zm0 0" fill="#e66000" opacity="1" data-original="#e66000"></path></g><path fill="#ff9419" d="m88.871 187.527-11.387-11.246a163.105 163.105 0 0 1 12.856-11.68l10.105 12.407a146.07 146.07 0 0 0-11.574 10.52zM48.125 272.871l-15.902-1.742a159.191 159.191 0 0 1 34.398-82.633l12.465 10.024a143.315 143.315 0 0 0-30.961 74.351zm0 0" opacity="1" data-original="#ff9419"></path><path fill="#5f943a" d="M215.676 46.656A36.806 36.806 0 0 1 199.27 16h-16a52.798 52.798 0 0 0 23.527 44l4 2.688 8.879-13.313zm0 0" opacity="1" data-original="#5f943a"></path><path fill="#5f943a" d="M183.27 0h16v144h-16zM207.266 50.965c69.066-15.063 137.27 28.715 152.336 97.785-69.07 15.063-137.274-28.715-152.336-97.785zm0 0" opacity="1" data-original="#5f943a"></path><path fill="#568741" d="M336.79 99.2c-33.544 11.198-76.192 6.081-108.106-.438 29.828 41.199 81.222 60.832 130.921 50.008A127.206 127.206 0 0 0 336.79 99.2zm0 0" opacity="1" data-original="#568741"></path><path fill="#e66000" d="M191.27 151.29a51.23 51.23 0 0 1-28.442-8.634l8.883-13.312a35.192 35.192 0 0 0 39.117 0l8.883 13.312a51.23 51.23 0 0 1-28.441 8.633zm0 0" opacity="1" data-original="#e66000"></path><path d="M191.27 480c75.828.04 144.57-44.578 175.41-113.852 30.84-69.273 17.996-150.21-32.778-206.53a135.284 135.284 0 0 0 27.407-3.06 8.001 8.001 0 0 0 6.113-9.511C351.898 75.567 282.52 29.25 210.55 42.32A36.606 36.606 0 0 1 199.27 16V0h-16v96.2C79.184 100.936-2.13 187.827.043 292.003 2.215 396.176 87.074 479.602 191.27 480zM299.367 75.04a119.088 119.088 0 0 1 50.399 67.386c-59.243 8.586-115.778-27.703-132.641-85.137a119.27 119.27 0 0 1 82.242 17.75zm-99.515-20.864a135.222 135.222 0 0 0 18.664 43.84 192.493 192.493 0 0 0-19.246-1.758V53.664c.183.176.39.336.582.512zm-16.582 58.023v22.074a35.175 35.175 0 0 1-11.56-4.93l-8.882 13.313a51.206 51.206 0 0 0 56.883 0l-8.883-13.312a35.21 35.21 0 0 1-11.558 4.93v-22.016c11.675.52 23.27 2.21 34.609 5.055a136.651 136.651 0 0 0 75.543 40.421c62.133 56.461 75.695 148.965 32.387 220.887s-131.41 103.203-210.375 74.7C52.464 424.815 4.656 344.472 17.27 261.472s82.128-145.512 166-149.274zm0 0" fill="#000000" opacity="1" data-original="#000000" class=""></path><path d="m100.438 177.008-10.106-12.406a163.105 163.105 0 0 0-12.855 11.68l11.394 11.245a145.962 145.962 0 0 1 11.567-10.52zM66.59 188.496a159.229 159.229 0 0 0-34.403 82.633l15.907 1.742A143.295 143.295 0 0 1 79.02 198.52zM287.27 200h16v16h-16zM319.27 248h16v16h-16zM239.27 360h16v16h-16zM287.27 368h16v16h-16zM215.27 408h16v16h-16zm0 0" fill="#000000" opacity="1" data-original="#000000" class=""></path></g></svg>