<svg xmlns="http://www.w3.org/2000/svg" version="1.1" xmlns:xlink="http://www.w3.org/1999/xlink" width="512" height="512" x="0" y="0" viewBox="0 0 512 512" style="enable-background:new 0 0 512 512" xml:space="preserve" class=""><g><path d="M308.994 32.138 291.952 12.24c-3.892-4.544-10.925-4.518-14.773.062-10.127 12.048-29.424 38.424-43.512 71.573 5.765 1.499 12.094 4.112 17.667 7.758 13.494-17.614 32.363-36.856 55.692-49.126 3.831-2.017 4.785-7.08 1.968-10.369z" style="" fill="#93603e" data-original="#93603e"></path><path d="M254.268 87.892c13.445-28.314 29.848-50.573 38.91-61.355 2.095-2.492 5.132-3.625 8.094-3.417l-9.319-10.88c-3.893-4.544-10.925-4.518-14.773.062-10.127 12.048-29.424 38.424-43.512 71.573 5.765 1.499 12.094 4.112 17.667 7.758.947-1.239 1.93-2.488 2.933-3.741z" style="" fill="#7f573c" data-original="#7f573c"></path><path d="M86.98 391.923a34.5 34.5 0 0 1 0-28.935c22.537-48.738 95.741-125.526 178.974-108.728-.803-42.93 4.515-78.592 10.459-104.477 6.137-26.73-7.482-55.187-35.297-65.83-27.776-10.607-56.929 1.455-70.207 25.501-19.07 34.534-53.523 84.217-111.394 130.918-94.226 76.038-36.744 204.641 9.194 251.773A36.472 36.472 0 0 0 97.29 503.07c20.748-1.413 47.778-8.125 74.437-20.405-40.365-23.288-71.418-61.919-84.747-90.742z" style="" fill="#9ab748" data-original="#9ab748"></path><path d="M88.708 492.146c-45.937-47.131-103.419-175.734-9.194-251.773 57.871-46.701 92.325-96.384 111.394-130.918 8.34-15.102 22.943-25.472 39.533-28.473-24.289-4.352-47.949 7.499-59.532 28.473-19.07 34.534-53.523 84.217-111.394 130.918-94.226 76.038-36.744 204.641 9.194 251.773a36.475 36.475 0 0 0 28.581 10.925c2.909-.198 5.954-.512 9.092-.919a36.462 36.462 0 0 1-17.674-10.006z" style="" fill="#8ca532" data-original="#8ca532"></path><path d="M459.596 323.556c-36.07-5.062-91.906-18.562-153.072-54.131-98.59-57.327-193.273 35.561-219.996 93.354a34.907 34.907 0 0 0 0 29.354c18.383 39.759 64.461 88.669 116.957 105.224 13.125 4.139 26.124 6.205 38.96 6.205 21.93-.001 43.374-6.036 64.08-18.075 61.165-35.568 117.002-49.067 153.072-54.13 25.424-3.568 46.661-25.196 46.661-54.364-.001-26.732-20.061-49.705-46.662-53.437z" style="" fill="#ffa92c" data-original="#ffa92c"></path><path d="M459.596 411.357c-36.071 5.063-91.908 18.562-153.072 54.13-20.705 12.04-42.149 18.074-64.08 18.075-12.836 0-25.835-2.066-38.96-6.205-52.496-16.555-98.573-65.466-116.957-105.224a35.073 35.073 0 0 1-1.759-4.678 34.888 34.888 0 0 0 1.759 24.677c18.383 39.759 64.461 88.669 116.957 105.224 13.125 4.139 26.124 6.205 38.96 6.205 21.93-.001 43.374-6.036 64.08-18.075 61.165-35.568 117.002-49.067 153.072-54.13 25.424-3.568 46.661-25.196 46.661-54.364 0-3.327-.312-6.595-.907-9.776-4.294 23.906-23.403 41.005-45.754 44.141z" style="" fill="#f7991e" data-original="#f7991e"></path><path d="M148.002 373.473c-2.364 2.109-2.364 5.857 0 7.966 56.338 50.259 182.14 50.21 238.422 0 2.364-2.109 2.364-5.857 0-7.966-25.454-22.707-69.338-37.705-119.211-37.705-49.873 0-93.757 14.998-119.211 37.705z" style="" fill="#f7991e" data-original="#f7991e"></path><path d="M379.067 367.506c-56.686 42.236-166.981 42.274-223.708 0a104.226 104.226 0 0 0-7.357 5.967c-2.364 2.109-2.364 5.857 0 7.966 56.338 50.259 182.139 50.211 238.422 0 2.364-2.109 2.364-5.857 0-7.966a103.998 103.998 0 0 0-7.357-5.967z" style="" fill="#ea8b18" data-original="#ea8b18"></path><path d="M326.23 357.712c-55.863-26.51-138.88-18.993-178.487 16.342a4.549 4.549 0 0 0 0 6.804c39.602 35.331 122.619 42.854 178.487 16.342 16.703-7.927 16.703-31.562 0-39.488z" style="" fill="#93603e" data-original="#93603e"></path><path d="M326.23 397.2c4.042-1.918 7.097-4.761 9.182-8.074-58.477 18.572-135.33 11.461-179.728-21.385a91.644 91.644 0 0 0-7.941 6.314 4.538 4.538 0 0 0-1.412 2.403 5.407 5.407 0 0 0 0 1.997 4.534 4.534 0 0 0 1.412 2.403c39.601 35.331 122.619 42.854 178.487 16.342z" style="" fill="#7f573c" data-original="#7f573c"></path><path d="M390.161 387.035c5.692-5.076 5.714-14.06 0-19.158-59.14-52.758-189.275-52.752-248.408 0l-.001.001c-5.855 5.224-5.551 14.206.001 19.157 27.8 24.802 74.231 39.608 124.204 39.608 49.973.001 96.404-14.806 124.204-39.608zm-58.222-33.979c18.284 5.836 34.224 14.113 46.379 24.4-12.157 10.287-28.097 18.564-46.382 24.401 17.426-11.55 17.414-37.26.003-48.801zm-177.892 24.4c39.238-32.149 116.916-37.073 167.712-12.97 11.012 5.228 11.023 20.705 0 25.937-20.591 9.772-46.659 15.153-73.403 15.153-37.842.002-72.758-10.461-94.309-28.12z" fill="#000000" opacity="1" data-original="#000000"></path><path d="M459.313 316.624c-35.45-4.976-90.341-18.251-150.527-53.25-11.998-6.977-24.231-12.036-36.658-15.179a446.678 446.678 0 0 1 1.247-36.002 7.5 7.5 0 1 0-14.957-1.131 460.769 460.769 0 0 0-1.299 34.288C177.61 235.181 103.84 305.941 78.916 359.842c-8.755 18.937-2.115 34.146 9.958 53.437 13.864 22.207 36.126 48.231 65.451 68.112-20.201 7.914-41.043 12.989-58.801 14.198a28.891 28.891 0 0 1-22.7-8.679c-44.235-45.383-99.281-168.536-9.855-240.701 59.239-47.804 94.284-98.782 113.25-133.129 13.721-24.847 45.582-32.952 69.942-17.67 17.291 10.916 26.424 32.059 21.687 52.694a408.907 408.907 0 0 0-5.286 27.35 7.5 7.5 0 0 0 14.815 2.348 393.404 393.404 0 0 1 5.089-26.34c5.3-23.08-2.414-47.466-20.719-63.16 13.9-16.707 29.85-29.869 47.51-39.16 8.095-4.257 10.127-14.938 4.175-21.885l-17.04-19.895c-7.039-8.219-19.504-7.865-26.211.114-9.49 11.29-26.995 34.383-41.205 65.842-26.502-4.072-52.811 8.832-65.887 32.511-18.318 33.173-52.192 82.431-109.54 128.707-60.982 49.212-65.674 123.905-35.169 194.958 11.242 26.182 27.17 50.925 43.701 67.887a43.874 43.874 0 0 0 31.458 13.275c12.324 0 42.927-4.733 76.548-19.601 24.416 13.43 48.387 18.217 53.651 18.217a7.502 7.502 0 0 0 1.052-14.925c-49.34-7.055-95.653-45.871-122.344-87.684-14.255-22.367-15.574-29.792-7.545-45.335 26.164-50.402 94.573-114.594 168.314-99.715.094.019.189.026.284.041 12.818 2.626 25.42 7.52 37.748 14.688 62.289 36.221 119.204 49.976 155.982 55.138 21.58 3.028 39.773 21.321 39.773 46.441 0 22.765-17.098 42.332-39.773 45.515-36.779 5.161-93.696 18.916-155.982 55.136-14.121 8.212-28.8 13.501-43.627 15.719a7.5 7.5 0 1 0 2.219 14.834c16.711-2.5 33.18-8.417 48.948-17.586 60.185-34.998 115.077-48.273 150.527-53.249C488.077 434.254 512 409.732 512 376.995c0-30.204-22.651-56.156-52.687-60.371zM281.663 17.127a2.154 2.154 0 0 1 1.659-.778c1.361-.007.235-.915 18.117 19.963-19.504 10.411-37.044 25.054-52.218 43.585-1.164-.595-3.763-1.806-5.608-2.533 13.283-28.732 29.282-49.806 38.05-60.237z" fill="#000000" opacity="1" data-original="#000000"></path><path d="m193.189 370.713-.613.099a7.501 7.501 0 0 0 2.305 14.822l.743-.12a7.5 7.5 0 0 0 6.183-8.618c-.673-4.087-4.534-6.862-8.618-6.183zM247.067 384.461l-.612.1a7.5 7.5 0 0 0 2.367 14.812l.742-.121a7.501 7.501 0 0 0-2.497-14.791zM247.437 355.624l-.613.099a7.501 7.501 0 0 0 2.305 14.822l.743-.12a7.5 7.5 0 0 0 6.183-8.618c-.673-4.087-4.533-6.859-8.618-6.183zM220.068 381.461l-.612.1a7.5 7.5 0 0 0 2.367 14.812l.742-.121a7.501 7.501 0 0 0-2.497-14.791zM220.438 360.624l-.613.099a7.501 7.501 0 0 0 2.305 14.822l.743-.12a7.5 7.5 0 1 0-2.435-14.801zM275.066 381.461l-.612.1a7.5 7.5 0 0 0 2.367 14.812l.742-.121a7.501 7.501 0 0 0-2.497-14.791zM275.436 360.624l-.613.099a7.501 7.501 0 0 0 2.305 14.822l.743-.12a7.5 7.5 0 1 0-2.435-14.801zM302.185 370.713l-.613.099a7.501 7.501 0 0 0 2.305 14.822l.743-.12a7.5 7.5 0 0 0 6.183-8.618c-.673-4.087-4.534-6.862-8.618-6.183z" fill="#000000" opacity="1" data-original="#000000"></path></g></svg>