<svg xmlns="http://www.w3.org/2000/svg" version="1.1" xmlns:xlink="http://www.w3.org/1999/xlink" width="512" height="512" x="0" y="0" viewBox="0 0 512 512" style="enable-background:new 0 0 512 512" xml:space="preserve" class=""><g><path d="M284.884 198h-57.649c-61.401 0-111.176 49.775-111.176 111.176v81.649C116.06 452.225 165.835 502 227.236 502h57.649c61.401 0 111.176-49.775 111.176-111.176v-81.649C396.06 247.775 346.285 198 284.884 198z" style="" fill="#ffc66c" data-original="#ffc66c"></path><path d="M255.932 201.602c30.233-56.37 93.499-95.127 166.751-95.127 0 0-50.99 41.027-77.396 102.025l-89.355-6.898z" style="" fill="#62cd4d" data-original="#62cd4d"></path><path d="M166.714 208.5c-26.406-60.998-77.396-102.025-77.396-102.025 73.251 0 136.518 38.757 166.751 95.127l-89.355 6.898z" style="" fill="#62cd4d" data-original="#62cd4d"></path><path d="M215.731 99.961c0-49.73 29.092-89.961 40.345-89.961 9.522 0 40.157 40.231 40.157 89.961l-40.074 48.599-40.428-48.599z" style="" fill="#a0e557" data-original="#a0e557"></path><path d="M180.582 127.419c-18.419-49.087-51.237-81.767-51.237-81.767 70.104 0 126.831 64.337 126.831 143.844l-75.594-62.077z" style="" fill="#a0e557" data-original="#a0e557"></path><path d="M255.985 189.497c0-79.508 56.727-143.844 126.831-143.844 0 0-32.818 32.68-51.237 81.767l-75.594 62.077z" style="" fill="#a0e557" data-original="#a0e557"></path><path d="M432.114 103.152a10 10 0 0 0-9.432-6.677c-24.867 0-49.083 3.948-71.538 11.517 17.202-33.488 38.475-55 38.727-55.253a10 10 0 0 0-7.055-17.086c-29.733 0-57.968 10.543-81.357 30.052-4.015-14.463-9.927-28.444-17.173-40.428C277.315 13.745 266.762 0 256.082 0c-11.511 0-22.194 13.829-29.13 25.43-7.004 11.716-12.712 25.535-16.603 39.984-23.321-19.321-51.419-29.762-81.003-29.762-4.045 0-7.688 2.44-9.235 6.177s-.688 8.042 2.172 10.902c.259.259 21.56 21.8 38.768 55.325-22.509-7.611-46.794-11.582-71.732-11.582a10 10 0 0 0-6.269 17.792c.114.092 11.632 9.409 26.371 25.64 3.713 4.089 10.038 4.393 14.126.68 4.089-3.712 4.394-10.037.681-14.125a339.064 339.064 0 0 0-7.736-8.239c20.459 2.663 39.806 8.329 57.366 16.589a10.038 10.038 0 0 0 5.004 2.45c24.047 12.237 44.449 29.494 59.317 50.739h-10.942c-19.082 0-37.145 4.44-53.218 12.331a250.167 250.167 0 0 0-10.576-20.531c-2.749-4.789-8.859-6.443-13.652-3.692-4.789 2.75-6.441 8.863-3.691 13.652a228.286 228.286 0 0 1 10.632 20.923c-30.659 22.01-50.67 57.957-50.67 98.494v81.648C106.06 457.641 160.419 512 227.236 512h57.648c66.816 0 121.176-54.359 121.176-121.176v-81.648c0-40.582-20.056-76.566-50.773-98.569 25.287-56.869 73.184-95.953 73.664-96.341a10.002 10.002 0 0 0 3.163-11.114zM358.786 58.5c-10.753 14.129-24.507 35.115-34.797 60.853a193.781 193.781 0 0 0-5.636 2.98c-19.3 10.627-36.172 24.221-49.967 40.127 9.344-51.987 45.08-93.065 90.4-103.96zm-11.29 171.256-22.654 22.654-44.41-44.41h4.452c23.621 0 45.375 8.138 62.612 21.756zm-91.071 231.707-56.176-56.176 56.176-56.176 56.176 56.176-56.176 56.176zm-70.319-70.318-54.274-54.274 56.176-56.176 54.274 54.274-56.176 56.176zm16.044-124.593 54.274-54.274 54.274 54.274-54.274 54.275-54.274-54.275zm53.591-245.748c6.485 5.599 22.591 28.401 29.059 61.286-12.469 14.38-22.147 31.042-28.719 49.149-6.618-18.236-16.387-35.008-28.984-49.457 6.126-32.2 21.57-55.576 28.644-60.978zm-62.092 101.529a191.132 191.132 0 0 0-5.435-2.873c-10.295-25.786-24.071-46.812-34.839-60.96 45.391 10.913 81.17 52.103 90.447 104.207-13.834-16.012-30.775-29.694-50.173-40.374zM232.417 208l-44.409 44.409-22.975-22.975C182.204 216.011 203.801 208 227.236 208h5.181zm-81.86 35.243 23.309 23.309-47.806 47.805v-5.182c0-25.164 9.237-48.211 24.497-65.932zM126.06 359.384l45.904 45.904-33.691 33.691c-7.786-14.327-12.212-30.734-12.212-48.155l-.001-31.44zm23.683 96.41 36.364-36.364 56.176 56.176-16.309 16.309c-.022.022-.041.047-.063.069-30.54-.395-57.859-14.386-76.168-36.19zM284.884 492h-30.711l72.57-72.57 35.969 35.969C344.138 477.746 316.146 492 284.884 492zm89.216-53.499-33.214-33.214 45.174-45.174v30.711c0 17.229-4.333 33.463-11.96 47.677zm11.96-129.325v22.652l-59.317 59.317-56.176-56.176 54.275-54.275 12.512 12.512c1.953 1.952 4.512 2.929 7.071 2.929s5.118-.977 7.071-2.929c3.905-3.905 3.905-10.237 0-14.143l-12.512-12.512 22.914-22.913c15.058 17.669 24.162 40.558 24.162 65.538zm-48.056-108.894C321.955 192.421 303.927 188 284.884 188h-11.063c14.851-21.218 35.221-38.458 59.23-50.692a10.038 10.038 0 0 0 5.405-2.643c17.459-8.172 36.676-13.783 56.988-16.434-17.128 17.615-41.064 46.205-57.44 82.051z" fill="#000000" opacity="1" data-original="#000000" class=""></path><path d="M136.635 167.222a9.949 9.949 0 0 0 5.98-1.992c4.423-3.307 5.328-9.574 2.021-13.997l-.117-.157c-3.308-4.424-9.573-5.329-13.997-2.021-4.423 3.307-5.328 9.574-2.021 13.997l.117.157a9.986 9.986 0 0 0 8.017 4.013zM359.94 301.649c-1.86 1.86-2.93 4.44-2.93 7.07s1.069 5.21 2.93 7.07a10.078 10.078 0 0 0 7.07 2.93c2.63 0 5.21-1.07 7.069-2.93 1.86-1.86 2.931-4.44 2.931-7.07s-1.07-5.21-2.931-7.07a10.076 10.076 0 0 0-7.069-2.93 10.082 10.082 0 0 0-7.07 2.93zM263.129 261.66c-1.859-1.86-4.439-2.931-7.069-2.931s-5.21 1.07-7.07 2.931a10.078 10.078 0 0 0-2.93 7.08c0 2.63 1.069 5.199 2.93 7.069 1.86 1.86 4.44 2.931 7.07 2.931s5.2-1.07 7.069-2.931a10.092 10.092 0 0 0 2.931-7.069c0-2.64-1.07-5.21-2.931-7.08zM263.129 399.91c-1.859-1.86-4.439-2.931-7.069-2.931s-5.21 1.07-7.07 2.931a10.072 10.072 0 0 0-2.93 7.069c0 2.641 1.069 5.21 2.93 7.07s4.44 2.93 7.07 2.93 5.21-1.06 7.069-2.93c1.86-1.86 2.931-4.44 2.931-7.07s-1.07-5.209-2.931-7.069zM185.81 328.359c-2.63 0-5.21 1.07-7.07 2.931a10.072 10.072 0 0 0-2.93 7.069c0 2.631 1.069 5.21 2.93 7.07s4.44 2.93 7.07 2.93 5.21-1.069 7.069-2.93a10.075 10.075 0 0 0 2.931-7.07c0-2.63-1.07-5.21-2.931-7.069a10.073 10.073 0 0 0-7.069-2.931zM327.04 328.359c-2.63 0-5.21 1.07-7.069 2.931a10.073 10.073 0 0 0-2.931 7.069c0 2.631 1.07 5.21 2.931 7.07 1.859 1.86 4.439 2.93 7.069 2.93s5.21-1.069 7.07-2.93 2.93-4.439 2.93-7.07c0-2.63-1.069-5.21-2.93-7.069a10.078 10.078 0 0 0-7.07-2.931zM327.03 451.939c-2.64 0-5.21 1.07-7.08 2.931-1.86 1.859-2.92 4.439-2.92 7.069s1.06 5.21 2.92 7.07a10.1 10.1 0 0 0 7.08 2.93c2.63 0 5.2-1.069 7.07-2.93 1.859-1.87 2.93-4.44 2.93-7.07s-1.07-5.21-2.93-7.069a10.077 10.077 0 0 0-7.07-2.931zM192.87 454.87a10.073 10.073 0 0 0-7.069-2.931 10.054 10.054 0 0 0-7.08 2.931 10.046 10.046 0 0 0-2.92 7.069c0 2.63 1.06 5.21 2.92 7.07a10.096 10.096 0 0 0 7.08 2.93c2.63 0 5.21-1.069 7.069-2.93 1.86-1.86 2.92-4.44 2.92-7.07 0-2.639-1.06-5.21-2.92-7.069z" fill="#000000" opacity="1" data-original="#000000" class=""></path></g></svg>