<svg xmlns="http://www.w3.org/2000/svg" version="1.1" xmlns:xlink="http://www.w3.org/1999/xlink" width="512" height="512" x="0" y="0" viewBox="0 0 512 512" style="enable-background:new 0 0 512 512" xml:space="preserve" class=""><g><path fill="#d10b2f" d="M219.427 106.391c4.239-12.239 14.715-27.437 40.632-30.708 0 0-35.673-24.797-61.775 2.61 0 0-2.719-41.328-26.809-61.34-24.09 20.011-26.809 61.34-26.809 61.34-26.102-27.407-61.775-2.61-61.775-2.61 25.916 3.271 36.393 18.469 40.632 30.708C57.113 122.933 7.522 183.246 7.522 254.589v28.386c0 75.484 55.513 138.621 127.727 150.629 7.269 12.454 20.765 20.828 36.226 20.828s28.957-8.374 36.226-20.828c72.214-12.008 127.727-75.145 127.727-150.629v-28.386c0-71.343-49.591-131.656-116.001-148.198z" opacity="1" data-original="#d10b2f"></path><path d="M317.187 182.458c-137.47-14.254-195.99 148.303-155.087 224.13C42.099 366.76 22.451 183.751 116.421 108.352c-156.406 46.241-143.609 299.757 18.828 325.252 16.697 27.589 55.962 27.807 72.451 0 158.034-32.596 136.796-207.927 109.487-251.146z" opacity="1" fill="#00000020" data-original="#00000020"></path><path fill="#d10b2f" d="M449.77 214.461c8.121-8.81 22.626-17.822 45.811-11.01 0 0-21.077-34.22-53.346-20.635 0 0 12.98-36.049-.045-61.927-27.828 8.058-45.42 42.096-45.42 42.096-11.996-32.894-51.415-25.062-51.415-25.062 20.76 12.356 24.035 29.123 23.105 41.068-62.433-10.542-126.796 22.259-153.185 82.756l-10.499 24.069c-27.919 64.005-4.2 138.073 52.591 174.965 1.557 13.249 9.904 25.341 23.013 31.06 13.109 5.718 27.651 3.609 38.421-4.262 65.674 16.527 136.098-16.476 164.017-80.481l10.499-24.069c26.388-60.495 6.647-129.979-43.547-168.568z" opacity="1" data-original="#d10b2f"></path><path fill="#ffcdb0" d="M285.322 454.655c-61.987-27.039-90.419-99.467-63.381-161.454l10.424-23.898c27.039-61.988 99.467-90.42 161.454-63.381l18.954 8.268c61.987 27.039 90.42 99.466 63.381 161.454l-10.424 23.898c-27.039 61.987-99.467 90.419-161.454 63.381z" opacity="1" data-original="#ffcdb0"></path><circle cx="305.667" cy="275.431" r="15.897" fill="#d10b2f" opacity="1" data-original="#d10b2f"></circle><path d="M305.656 287.912c-8.047-3.51-11.725-12.879-8.215-20.926a15.803 15.803 0 0 1 6.557-7.354c-5.496.586-10.533 4.015-12.902 9.444-3.51 8.047.168 17.416 8.215 20.926 4.835 2.109 10.138 1.608 14.37-.861a15.803 15.803 0 0 1-8.025-1.229z" opacity="1" fill="#00000020" data-original="#00000020"></path><ellipse cx="307.837" cy="274.045" fill="#ffcdb0" rx="2.866" ry="4.755" transform="rotate(-21.4 308.255 274.306)" opacity="1" data-original="#ffcdb0"></ellipse><circle cx="332.554" cy="297.497" r="15.897" fill="#d10b2f" opacity="1" data-original="#d10b2f"></circle><path d="M339.656 307.76c-8.613 1.7-16.974-3.904-18.674-12.518a15.795 15.795 0 0 1 1.199-9.779c-4.183 3.613-6.369 9.301-5.223 15.111 1.7 8.613 10.061 14.218 18.674 12.518 5.175-1.021 9.248-4.454 11.319-8.894a15.795 15.795 0 0 1-7.295 3.562z" opacity="1" fill="#00000020" data-original="#00000020"></path><ellipse cx="333.387" cy="295.687" fill="#ffcdb0" rx="2.866" ry="4.755" transform="rotate(-56.17 333.234 295.562)" opacity="1" data-original="#ffcdb0"></ellipse><circle cx="413.874" cy="253.505" r="15.897" fill="#d10b2f" opacity="1" data-original="#d10b2f"></circle><path d="M413.863 265.986c-8.047-3.51-11.725-12.879-8.215-20.926a15.803 15.803 0 0 1 6.557-7.354c-5.496.586-10.533 4.015-12.902 9.444-3.51 8.047.168 17.416 8.215 20.926 4.835 2.109 10.138 1.608 14.37-.861a15.814 15.814 0 0 1-8.025-1.229z" opacity="1" fill="#00000020" data-original="#00000020"></path><ellipse cx="416.724" cy="252.046" fill="#ffcdb0" rx="2.866" ry="4.755" transform="rotate(-21.4 417.266 252.259)" opacity="1" data-original="#ffcdb0"></ellipse><circle cx="249.741" cy="316.079" r="15.897" fill="#d10b2f" opacity="1" data-original="#d10b2f"></circle><path d="M249.73 328.56c-8.047-3.51-11.725-12.879-8.215-20.926a15.803 15.803 0 0 1 6.557-7.354c-5.496.586-10.533 4.015-12.902 9.444-3.51 8.047.168 17.416 8.215 20.926 4.835 2.109 10.138 1.608 14.37-.861a15.814 15.814 0 0 1-8.025-1.229z" opacity="1" fill="#00000020" data-original="#00000020"></path><ellipse cx="252.026" cy="314.842" fill="#ffcdb0" rx="2.866" ry="4.755" transform="rotate(-21.4 252.389 315.161)" opacity="1" data-original="#ffcdb0"></ellipse><circle cx="278.371" cy="255.825" r="15.897" fill="#d10b2f" opacity="1" data-original="#d10b2f"></circle><path d="M284.675 266.597c-8.717 1.043-16.629-5.179-17.672-13.896-.416-3.48.34-6.823 1.936-9.66-4.445 3.286-7.056 8.791-6.352 14.672 1.043 8.717 8.955 14.939 17.672 13.896 5.237-.626 9.559-3.741 11.96-8.011a15.805 15.805 0 0 1-7.544 2.999z" opacity="1" fill="#00000020" data-original="#00000020"></path><ellipse cx="279.68" cy="252.314" fill="#ffcdb0" rx="2.866" ry="4.755" transform="rotate(-51.83 279.64 252.365)" opacity="1" data-original="#ffcdb0"></ellipse><circle cx="263.397" cy="285.308" r="15.897" fill="#d10b2f" opacity="1" data-original="#d10b2f"></circle><path d="M265.814 297.553c-8.576-1.878-14.006-10.353-12.128-18.929a15.806 15.806 0 0 1 5.001-8.489c-5.278 1.644-9.551 5.987-10.818 11.772-1.878 8.576 3.552 17.051 12.128 18.929 5.152 1.128 10.257-.395 13.928-3.639-2.545.793-5.32.967-8.111.356z" opacity="1" fill="#00000020" data-original="#00000020"></path><ellipse cx="264.96" cy="283.932" fill="#ffcdb0" rx="2.866" ry="4.755" transform="rotate(-32.67 264.627 283.7)" opacity="1" data-original="#ffcdb0"></ellipse><circle cx="289.972" cy="306.643" r="15.897" fill="#d10b2f" opacity="1" data-original="#d10b2f"></circle><path d="M292.31 318.903c-8.564-1.933-13.939-10.443-12.006-19.007a15.803 15.803 0 0 1 5.056-8.456c-5.288 1.61-9.59 5.925-10.894 11.703-1.933 8.564 3.442 17.074 12.006 19.007 5.145 1.161 10.259-.329 13.951-3.55-2.55.776-5.327.932-8.113.303z" opacity="1" fill="#00000020" data-original="#00000020"></path><ellipse cx="292.304" cy="304.796" fill="#ffcdb0" rx="2.866" ry="4.755" transform="rotate(-32.3 292.299 304.848)" opacity="1" data-original="#ffcdb0"></ellipse><circle cx="316.656" cy="325.442" r="15.897" fill="#d10b2f" opacity="1" data-original="#d10b2f"></circle><path d="M314.44 337.725c-7.3-4.877-9.265-14.748-4.388-22.049a15.806 15.806 0 0 1 7.753-6.08c-5.514-.394-11.077 2.09-14.367 7.015-4.877 7.3-2.912 17.172 4.388 22.049 4.386 2.93 9.694 3.374 14.296 1.692a15.802 15.802 0 0 1-7.682-2.627z" opacity="1" fill="#00000020" data-original="#00000020"></path><ellipse cx="319.124" cy="324.629" fill="#ffcdb0" rx="2.866" ry="4.755" transform="rotate(-11.19 319.826 324.63)" opacity="1" data-original="#ffcdb0"></ellipse><circle cx="311.094" cy="357.45" r="15.897" fill="#d10b2f" opacity="1" data-original="#d10b2f"></circle><path d="M308.878 369.733c-7.3-4.877-9.265-14.748-4.388-22.049a15.806 15.806 0 0 1 7.753-6.08c-5.514-.394-11.077 2.09-14.367 7.015-4.877 7.3-2.912 17.172 4.388 22.049 4.386 2.93 9.694 3.374 14.296 1.692a15.799 15.799 0 0 1-7.682-2.627z" opacity="1" fill="#00000020" data-original="#00000020"></path><ellipse cx="313.643" cy="356.62" fill="#ffcdb0" rx="2.866" ry="4.755" transform="rotate(-11.19 314.371 356.662)" opacity="1" data-original="#ffcdb0"></ellipse><circle cx="241.542" cy="348.633" r="15.897" fill="#d10b2f" opacity="1" data-original="#d10b2f"></circle><path d="M251.269 356.453c-7.774 4.079-17.383 1.084-21.463-6.69a15.803 15.803 0 0 1-1.632-9.716c-2.983 4.654-3.462 10.728-.709 15.973 4.079 7.774 13.688 10.77 21.463 6.69 4.671-2.451 7.599-6.901 8.322-11.746a15.811 15.811 0 0 1-5.981 5.489z" opacity="1" fill="#00000020" data-original="#00000020"></path><ellipse cx="242.061" cy="345.905" fill="#ffcdb0" rx="2.866" ry="4.755" transform="rotate(-72.67 242.061 345.795)" opacity="1" data-original="#ffcdb0"></ellipse><circle cx="278.112" cy="341.895" r="15.897" fill="#d10b2f" opacity="1" data-original="#d10b2f"></circle><path d="M279.777 354.265c-8.446-2.398-13.348-11.188-10.951-19.634a15.802 15.802 0 0 1 5.51-8.168c-5.368 1.319-9.899 5.393-11.517 11.09-2.398 8.446 2.505 17.236 10.951 19.634 5.074 1.441 10.262.232 14.124-2.783a15.797 15.797 0 0 1-8.117-.139z" opacity="1" fill="#00000020" data-original="#00000020"></path><ellipse cx="279.732" cy="340.63" fill="#ffcdb0" rx="2.866" ry="4.755" transform="rotate(-29.16 279.77 340.706)" opacity="1" data-original="#ffcdb0"></ellipse><circle cx="259.125" cy="375.66" r="15.897" fill="#d10b2f" opacity="1" data-original="#d10b2f"></circle><path d="M260.79 388.03c-8.446-2.398-13.348-11.188-10.951-19.634a15.802 15.802 0 0 1 5.51-8.168c-5.368 1.319-9.899 5.393-11.517 11.09-2.398 8.446 2.505 17.236 10.951 19.634 5.074 1.441 10.262.232 14.124-2.783a15.796 15.796 0 0 1-8.117-.139z" opacity="1" fill="#00000020" data-original="#00000020"></path><ellipse cx="260.493" cy="374.535" fill="#ffcdb0" rx="2.866" ry="4.755" transform="rotate(-29.16 260.526 374.617)" opacity="1" data-original="#ffcdb0"></ellipse><circle cx="290.976" cy="383.018" r="15.897" fill="#d10b2f" opacity="1" data-original="#d10b2f"></circle><path d="M292.641 395.387c-8.446-2.398-13.348-11.188-10.951-19.634a15.802 15.802 0 0 1 5.51-8.168c-5.368 1.319-9.899 5.393-11.517 11.09-2.398 8.446 2.505 17.236 10.951 19.634 5.074 1.441 10.262.232 14.124-2.783a15.775 15.775 0 0 1-8.117-.139z" opacity="1" fill="#00000020" data-original="#00000020"></path><ellipse cx="293.105" cy="381.469" fill="#ffcdb0" rx="2.866" ry="4.755" transform="rotate(-29.16 293.143 381.553)" opacity="1" data-original="#ffcdb0"></ellipse><circle cx="275.08" cy="411.613" r="15.897" fill="#d10b2f" opacity="1" data-original="#d10b2f"></circle><path d="M276.355 424.029c-8.366-2.662-12.99-11.602-10.328-19.968a15.807 15.807 0 0 1 5.764-7.991c-5.407 1.149-10.064 5.079-11.86 10.723-2.662 8.366 1.962 17.306 10.328 19.968 5.026 1.599 10.25.555 14.204-2.337a15.809 15.809 0 0 1-8.108-.395z" opacity="1" fill="#00000020" data-original="#00000020"></path><ellipse cx="276.744" cy="410.231" fill="#ffcdb0" rx="2.866" ry="4.755" transform="rotate(-27.33 277.043 410.565)" opacity="1" data-original="#ffcdb0"></ellipse><circle cx="314.274" cy="238.368" r="15.897" fill="#d10b2f" opacity="1" data-original="#d10b2f"></circle><path d="M314.264 250.849c-8.047-3.51-11.725-12.879-8.215-20.926a15.803 15.803 0 0 1 6.557-7.354c-5.496.586-10.533 4.015-12.902 9.444-3.51 8.047.168 17.416 8.215 20.926 4.835 2.109 10.138 1.608 14.37-.861a15.814 15.814 0 0 1-8.025-1.229z" opacity="1" fill="#00000020" data-original="#00000020"></path><ellipse cx="316.681" cy="236.787" fill="#ffcdb0" rx="2.866" ry="4.755" transform="rotate(-21.4 317.104 237)" opacity="1" data-original="#ffcdb0"></ellipse><circle cx="342.301" cy="262.691" r="15.897" fill="#d10b2f" opacity="1" data-original="#d10b2f"></circle><path d="M342.29 275.172c-8.047-3.51-11.725-12.879-8.215-20.926a15.803 15.803 0 0 1 6.557-7.354c-5.496.586-10.533 4.015-12.902 9.444-3.51 8.047.168 17.416 8.215 20.926 4.835 2.109 10.138 1.608 14.37-.861a15.803 15.803 0 0 1-8.025-1.229z" opacity="1" fill="#00000020" data-original="#00000020"></path><ellipse cx="343.841" cy="261.747" fill="#ffcdb0" rx="2.866" ry="4.755" transform="rotate(-21.4 344.301 261.986)" opacity="1" data-original="#ffcdb0"></ellipse><circle cx="353.593" cy="227.14" r="15.897" fill="#d10b2f" opacity="1" data-original="#d10b2f"></circle><path d="M353.582 239.621c-8.047-3.51-11.725-12.879-8.215-20.926a15.803 15.803 0 0 1 6.557-7.354c-5.496.586-10.533 4.015-12.902 9.444-3.51 8.047.168 17.416 8.215 20.926 4.835 2.109 10.138 1.608 14.37-.861a15.814 15.814 0 0 1-8.025-1.229z" opacity="1" fill="#00000020" data-original="#00000020"></path><ellipse cx="355.428" cy="225.967" fill="#ffcdb0" rx="2.866" ry="4.755" transform="rotate(-21.4 355.893 226.16)" opacity="1" data-original="#ffcdb0"></ellipse><circle cx="436.806" cy="276.745" r="15.897" fill="#d10b2f" opacity="1" data-original="#d10b2f"></circle><path d="M436.795 289.226c-8.047-3.51-11.725-12.879-8.215-20.926a15.803 15.803 0 0 1 6.557-7.354c-5.496.586-10.533 4.015-12.901 9.444-3.51 8.047.168 17.416 8.215 20.926 4.835 2.109 10.138 1.608 14.37-.861a15.816 15.816 0 0 1-8.026-1.229z" opacity="1" fill="#00000020" data-original="#00000020"></path><ellipse cx="439.312" cy="275.737" fill="#ffcdb0" rx="2.866" ry="4.755" transform="rotate(-21.4 439.887 275.973)" opacity="1" data-original="#ffcdb0"></ellipse><circle cx="452.181" cy="305.709" r="15.897" fill="#d10b2f" opacity="1" data-original="#d10b2f"></circle><path d="M450.669 318.098c-7.567-4.452-10.091-14.196-5.639-21.762a15.8 15.8 0 0 1 7.393-6.512c-5.527-.079-10.94 2.719-13.944 7.823-4.452 7.567-1.928 17.31 5.639 21.763 4.546 2.675 9.871 2.815 14.369.873a15.8 15.8 0 0 1-7.818-2.185z" opacity="1" fill="#00000020" data-original="#00000020"></path><ellipse cx="456.218" cy="304.337" fill="#ffcdb0" rx="2.866" ry="4.755" transform="rotate(-14.53 455.88 304.136)" opacity="1" data-original="#ffcdb0"></ellipse><circle cx="382.987" cy="316.805" r="15.897" fill="#d10b2f" opacity="1" data-original="#d10b2f"></circle><path d="M378.565 328.476c-6.287-6.128-6.415-16.193-.287-22.479a15.8 15.8 0 0 1 8.733-4.561c-5.349-1.395-11.272.032-15.407 4.273-6.128 6.287-6 16.351.287 22.479 3.777 3.682 8.915 5.088 13.746 4.275a15.804 15.804 0 0 1-7.072-3.987z" opacity="1" fill="#00000020" data-original="#00000020"></path><ellipse cx="385.2" cy="316.372" fill="#ffcdb0" rx="2.866" ry="4.755" transform="translate(-4.002 4.936)" opacity="1" data-original="#ffcdb0"></ellipse><circle cx="418.121" cy="308.201" r="15.897" fill="#d10b2f" opacity="1" data-original="#d10b2f"></circle><path d="M413.698 319.872c-6.287-6.128-6.415-16.193-.287-22.479a15.8 15.8 0 0 1 8.733-4.561c-5.349-1.395-11.272.032-15.407 4.273-6.128 6.287-6 16.351.287 22.479 3.777 3.682 8.915 5.088 13.746 4.275a15.814 15.814 0 0 1-7.072-3.987z" opacity="1" fill="#00000020" data-original="#00000020"></path><ellipse cx="421.497" cy="307.842" fill="#ffcdb0" rx="2.866" ry="4.755" transform="translate(-3.89 5.398)" opacity="1" data-original="#ffcdb0"></ellipse><circle cx="449.905" cy="339.99" r="15.897" fill="#d10b2f" opacity="1" data-original="#d10b2f"></circle><path d="M443.873 350.917c-5.355-6.957-4.055-16.938 2.902-22.293a15.81 15.81 0 0 1 9.291-3.278c-5.097-2.139-11.163-1.566-15.857 2.046-6.957 5.355-8.257 15.336-2.902 22.293 3.217 4.18 8.104 6.3 13.002 6.18a15.807 15.807 0 0 1-6.436-4.948z" opacity="1" fill="#00000020" data-original="#00000020"></path><ellipse cx="452.316" cy="339.985" fill="#ffcdb0" rx="4.755" ry="2.866" transform="rotate(-82.6 452.098 339.87)" opacity="1" data-original="#ffcdb0"></ellipse><circle cx="441.77" cy="377.475" r="15.897" fill="#d10b2f" opacity="1" data-original="#d10b2f"></circle><path d="M433.763 387.049c-3.928-7.852-.746-17.401 7.106-21.329a15.802 15.802 0 0 1 9.746-1.443c-4.595-3.073-10.659-3.669-15.956-1.02-7.852 3.928-11.033 13.477-7.106 21.329 2.36 4.717 6.752 7.732 11.582 8.549a15.818 15.818 0 0 1-5.372-6.086z" opacity="1" fill="#00000020" data-original="#00000020"></path><ellipse cx="444.24" cy="377.665" fill="#ffcdb0" rx="4.755" ry="2.866" transform="rotate(-71.58 444.172 377.545)" opacity="1" data-original="#ffcdb0"></ellipse><circle cx="415.876" cy="342.605" r="15.897" fill="#d10b2f" opacity="1" data-original="#d10b2f"></circle><path d="M411.811 354.406c-6.47-5.934-6.905-15.99-.972-22.46a15.805 15.805 0 0 1 8.59-4.825c-5.389-1.231-11.266.375-15.27 4.74-5.934 6.47-5.499 16.526.971 22.46 3.887 3.565 9.066 4.814 13.87 3.854a15.818 15.818 0 0 1-7.189-3.769z" opacity="1" fill="#00000020" data-original="#00000020"></path><ellipse cx="418.184" cy="341.891" fill="#ffcdb0" rx="2.866" ry="4.755" transform="rotate(-2.56 419.668 344.271)" opacity="1" data-original="#ffcdb0"></ellipse><circle cx="403.545" cy="374.623" r="15.897" fill="#d10b2f" opacity="1" data-original="#d10b2f"></circle><path d="M399.48 386.424c-6.47-5.934-6.905-15.99-.972-22.46a15.805 15.805 0 0 1 8.59-4.825c-5.389-1.231-11.266.375-15.27 4.74-5.934 6.47-5.499 16.526.971 22.46 3.887 3.565 9.066 4.814 13.87 3.854a15.813 15.813 0 0 1-7.189-3.769z" opacity="1" fill="#00000020" data-original="#00000020"></path><ellipse cx="406.396" cy="374.621" fill="#ffcdb0" rx="2.866" ry="4.755" transform="rotate(-2.56 407.788 377.135)" opacity="1" data-original="#ffcdb0"></ellipse><circle cx="381.845" cy="349.606" r="15.897" fill="#d10b2f" opacity="1" data-original="#d10b2f"></circle><path d="M377.78 361.407c-6.47-5.934-6.905-15.99-.972-22.46a15.805 15.805 0 0 1 8.59-4.825c-5.389-1.231-11.266.375-15.27 4.74-5.934 6.47-5.499 16.526.971 22.46 3.887 3.565 9.066 4.814 13.87 3.854a15.818 15.818 0 0 1-7.189-3.769z" opacity="1" fill="#00000020" data-original="#00000020"></path><ellipse cx="385.399" cy="349.604" fill="#ffcdb0" rx="2.866" ry="4.755" transform="rotate(-2.56 386.722 351.97)" opacity="1" data-original="#ffcdb0"></ellipse><circle cx="357.825" cy="372.791" r="15.897" fill="#d10b2f" opacity="1" data-original="#d10b2f"></circle><path d="M349.789 382.341c-3.904-7.864-.694-17.403 7.17-21.307a15.805 15.805 0 0 1 9.751-1.414c-4.586-3.087-10.648-3.701-15.953-1.068-7.864 3.904-11.074 13.443-7.17 21.307 2.345 4.724 6.728 7.752 11.557 8.583a15.798 15.798 0 0 1-5.355-6.101z" opacity="1" fill="#00000020" data-original="#00000020"></path><ellipse cx="359.808" cy="373.124" fill="#ffcdb0" rx="4.755" ry="2.866" transform="rotate(-71.4 359.824 373.023)" opacity="1" data-original="#ffcdb0"></ellipse><circle cx="416.718" cy="405.415" r="15.897" fill="#d10b2f" opacity="1" data-original="#d10b2f"></circle><path d="M415.596 417.845c-7.703-4.213-10.532-13.872-6.319-21.575a15.805 15.805 0 0 1 7.185-6.741c-5.527.095-10.849 3.061-13.691 8.257-4.213 7.703-1.383 17.362 6.319 21.575 4.628 2.531 9.955 2.504 14.389.422a15.8 15.8 0 0 1-7.883-1.938z" opacity="1" fill="#00000020" data-original="#00000020"></path><ellipse cx="419.032" cy="404.407" fill="#ffcdb0" rx="2.866" ry="4.755" transform="rotate(-16.32 419.22 404.514)" opacity="1" data-original="#ffcdb0"></ellipse><circle cx="379.266" cy="398.926" r="15.897" fill="#d10b2f" opacity="1" data-original="#d10b2f"></circle><path d="M378.144 411.357c-7.703-4.213-10.532-13.872-6.319-21.575a15.805 15.805 0 0 1 7.185-6.741c-5.527.095-10.849 3.061-13.691 8.257-4.213 7.703-1.383 17.362 6.319 21.575 4.628 2.531 9.955 2.504 14.389.422a15.809 15.809 0 0 1-7.883-1.938z" opacity="1" fill="#00000020" data-original="#00000020"></path><ellipse cx="381.055" cy="398.073" fill="#ffcdb0" rx="2.866" ry="4.755" transform="rotate(-16.32 381.228 398.182)" opacity="1" data-original="#ffcdb0"></ellipse><circle cx="391.666" cy="430.785" r="15.897" fill="#d10b2f" opacity="1" data-original="#d10b2f"></circle><path d="M392.356 443.247c-8.232-3.053-12.43-12.2-9.377-20.432a15.81 15.81 0 0 1 6.133-7.711c-5.455.894-10.291 4.6-12.351 10.153-3.053 8.232 1.146 17.379 9.377 20.432 4.945 1.834 10.212 1.036 14.299-1.667-2.63.432-5.403.218-8.081-.775z" opacity="1" fill="#00000020" data-original="#00000020"></path><ellipse cx="393.804" cy="430.287" fill="#ffcdb0" rx="2.866" ry="4.755" transform="rotate(-24.63 394.065 430.328)" opacity="1" data-original="#ffcdb0"></ellipse><circle cx="341.247" cy="405.418" r="15.897" fill="#d10b2f" opacity="1" data-original="#d10b2f"></circle><path d="M341.174 417.899c-8.029-3.551-11.66-12.938-8.109-20.967a15.799 15.799 0 0 1 6.594-7.321c-5.499.558-10.553 3.961-12.949 9.378-3.551 8.029.08 17.417 8.109 20.968 4.824 2.133 10.13 1.659 14.374-.789a15.811 15.811 0 0 1-8.019-1.269z" opacity="1" fill="#00000020" data-original="#00000020"></path><ellipse cx="344.081" cy="403.983" fill="#ffcdb0" rx="2.866" ry="4.755" transform="rotate(-21.15 343.784 403.692)" opacity="1" data-original="#ffcdb0"></ellipse><circle cx="356.071" cy="436.376" r="15.897" fill="#d10b2f" opacity="1" data-original="#d10b2f"></circle><path d="M354.949 448.806c-7.703-4.213-10.532-13.872-6.319-21.575a15.805 15.805 0 0 1 7.185-6.741c-5.527.095-10.849 3.061-13.691 8.257-4.213 7.703-1.383 17.362 6.319 21.575 4.628 2.531 9.955 2.504 14.389.422a15.8 15.8 0 0 1-7.883-1.938z" opacity="1" fill="#00000020" data-original="#00000020"></path><ellipse cx="358.988" cy="435.192" fill="#ffcdb0" rx="2.866" ry="4.755" transform="rotate(-16.32 359.154 435.316)" opacity="1" data-original="#ffcdb0"></ellipse><circle cx="394.933" cy="282.248" r="15.897" fill="#d10b2f" opacity="1" data-original="#d10b2f"></circle><path d="M389.618 293.541c-5.792-6.598-5.139-16.642 1.458-22.434a15.808 15.808 0 0 1 9.061-3.87c-5.224-1.806-11.241-.843-15.692 3.064-6.598 5.792-7.251 15.836-1.458 22.434 3.48 3.964 8.493 5.764 13.373 5.328a15.79 15.79 0 0 1-6.742-4.522z" opacity="1" fill="#00000020" data-original="#00000020"></path><ellipse cx="397.973" cy="281.966" fill="#ffcdb0" rx="4.755" ry="2.866" transform="rotate(-86.27 398.01 281.92)" opacity="1" data-original="#ffcdb0"></ellipse><path d="M14.576 282.975v-28.386c0-66.892 45.428-124.925 110.474-141.127 4.073-1.014 6.499-5.489 5.125-9.457-4.71-13.598-13.862-23.786-26.503-29.835 10.523-2.753 24.163-2.739 35.482 9.149 4.252 4.465 12.135 1.623 12.549-4.539.024-.353 2.429-32.785 19.538-51.735 17.108 18.95 19.514 51.381 19.538 51.727.421 6.141 8.275 9.035 12.55 4.547 5.873-6.168 12.532-9.579 20.356-10.43 4.002-.435 6.893-4.032 6.457-8.033s-4.023-6.891-8.033-6.457c-6.723.731-12.958 2.816-18.645 6.225-2.895-14.857-10.097-38.763-27.567-53.276a7.288 7.288 0 0 0-9.313 0c-17.471 14.513-24.673 38.423-27.568 53.28-20.512-12.31-46.386-4.749-60.518 5.072-5.323 3.699-3.334 12.384 3.246 13.214 14.773 1.865 25.31 8.157 31.427 18.737C46.233 122.317-.005 184.443 0 254.589v28.386c0 44.297 18.789 87.077 51.548 117.37a7.288 7.288 0 0 0 9.896-10.702c-29.786-27.542-46.868-66.422-46.868-106.668z" fill="#000000" opacity="1" data-original="#000000" class=""></path><path d="M212.306 104.005c-1.375 3.969 1.04 8.44 5.125 9.457 36.897 9.19 67.475 31.845 87.036 61.938-42.626 11.896-78.439 42.931-96.106 83.432a7.289 7.289 0 0 0 3.765 9.594c3.61 1.574 7.965-.033 9.594-3.765 24.643-56.495 84.396-88.769 145.292-78.484 4.141.699 8.153-2.426 8.48-6.621 1.005-12.91-2.691-24.649-10.602-34.345 9.437 1.802 19.947 6.959 24.8 20.269 2.11 5.785 10.46 6.343 13.316.857.149-.286 13.869-26.287 34.889-36.142 7.077 22.111-2.646 49.854-2.752 50.15-2.076 5.783 3.956 11.598 9.685 9.186 13.063-5.5 23.992-1.303 31.73 4.389-12.485.799-23.606 6.079-32.381 15.6a7.288 7.288 0 0 0 10.717 9.879c9.741-10.566 22.659-13.58 38.398-8.957 6.231 1.83 11.666-5.284 8.259-10.814-7.152-11.612-25.448-29.598-49.213-27.011 2.989-13.825 5.478-36.429-3.873-55.007a7.29 7.29 0 0 0-8.537-3.724c-19.977 5.785-34.851 22.986-42.95 34.582-14.277-19.182-39.902-20.351-53.278-17.696-6.498 1.29-7.914 10.073-2.307 13.411 11.437 6.807 17.927 15.672 19.375 26.425-13.788-1.479-27.755-.962-41.427 1.421-20.258-33.56-52.87-58.911-90.033-70.382 6.117-10.58 16.654-16.872 31.427-18.737a7.288 7.288 0 1 0-1.826-14.461c-23.122 2.921-39.673 15.548-46.603 35.556zM477.235 231.017a7.289 7.289 0 0 0-11.183 9.349c32.957 39.42 40.756 92.97 20.35 139.748l-10.499 24.07c-25.875 59.321-92.751 92.133-155.558 76.327a7.287 7.287 0 0 0-6.079 1.183c-9.024 6.598-20.984 7.927-31.207 3.467-10.223-4.459-17.383-14.128-18.69-25.232a7.285 7.285 0 0 0-3.267-5.26c-54.312-35.282-75.757-106.62-49.881-165.939a7.289 7.289 0 0 0-13.359-5.829c-20.19 46.299-15.078 100.639 13.283 142.605-1.616.328-3.24.637-4.875.909a7.29 7.29 0 0 0-5.099 3.516c-6.197 10.618-17.666 17.214-29.931 17.214s-23.734-6.596-29.931-17.214a7.288 7.288 0 0 0-5.099-3.516c-18.275-3.039-35.607-9.499-51.513-19.2a7.288 7.288 0 0 0-7.59 12.444c16.565 10.102 34.539 17.011 53.473 20.561 9.12 13.342 24.395 21.499 40.659 21.499s31.54-8.157 40.659-21.5c2.987-.561 5.95-1.215 8.891-1.946a147.49 147.49 0 0 0 29.644 26.801c2.889 14.768 12.913 27.389 26.799 33.445 13.828 6.031 29.908 4.846 42.746-3.111 67.772 15.662 141.532-21.039 169.285-85.398l10.499-24.07c22.545-51.695 13.315-112.044-22.527-154.923z" fill="#000000" opacity="1" data-original="#000000" class=""></path><path d="M330.137 370.328c5.428-8.124 5.024-18.462-.211-26.056 7.703-5.51 11.34-15.619 8.887-24.743a7.29 7.29 0 0 0 3.735-7.848 7.29 7.29 0 0 0-8.561-5.739c-4.66.923-9.193-2.122-10.113-6.778-.919-4.656 2.123-9.193 6.779-10.113 4.582-.905 9.205 2.185 10.112 6.779a7.289 7.289 0 0 0 14.3-2.822 23.033 23.033 0 0 0-3.91-9.015c13.289-5.517 18.1-23.563 9.657-34.927 5.961-2.029 11.087-6.445 13.797-12.657a7.29 7.29 0 0 0-3.765-9.594 7.289 7.289 0 0 0-9.594 3.766c-3.006 6.893-13.239 6.492-15.905-.297-2.823-7.189 4.693-13.986 11.455-11.036a7.29 7.29 0 0 0 5.829-13.36c-13.209-5.764-28.971 2.279-31.929 16.341-13.817-14.377-38.246-4.998-39.765 14.283-9.732-6.546-23.644-4.402-31.022 4.981a23.23 23.23 0 0 0-3.755 21.709c-12.871 3.983-19.634 18.694-14.388 31.037-13.89 4.717-19.755 21.978-11.85 34.227a7.286 7.286 0 0 0-2.451 9.476 7.285 7.285 0 0 0 9.839 3.066c4.202-2.204 9.418-.581 11.623 3.623s.58 9.418-3.624 11.624c-4.152 2.179-9.45.515-11.622-3.623a7.289 7.289 0 0 0-12.907 6.771 23.184 23.184 0 0 0 15.36 11.829c-2.541 12.823 6.366 25.533 19.511 27.383-8.622 12.435-2.324 30.477 12.167 35.088 3.738 1.189 7.92-.855 9.154-4.736a7.289 7.289 0 0 0-4.736-9.154c-4.463-1.42-7.013-6.352-5.593-10.813 1.44-4.523 6.29-7.033 10.814-5.594 4.524 1.44 7.033 6.291 5.593 10.816a7.289 7.289 0 0 0 13.89 4.418 23.04 23.04 0 0 0 .197-13.365c10.364-2.926 17.95-13.742 16.642-24.833a23.173 23.173 0 0 0 16.36-10.114zm-12.12-8.096c-2.599 3.89-8.058 4.971-11.94 2.377-3.947-2.637-5.013-7.993-2.377-11.94 2.637-3.948 7.994-5.014 11.941-2.377s5.013 7.992 2.376 11.94zm-42.491-12.055c-4.505-1.279-7.209-6.128-5.93-10.633 1.28-4.508 6.137-7.207 10.632-5.931 4.491 1.276 7.21 6.126 5.931 10.633-1.296 4.567-6.066 7.228-10.633 5.931zm22.608-41.639c-1.045 4.631-5.671 7.552-10.293 6.502-4.63-1.045-7.547-5.662-6.501-10.293 1.06-4.696 5.748-7.529 10.293-6.502 4.554 1.029 7.532 5.723 6.501 10.293zm-.593-36.549c1.898-4.351 6.98-6.347 11.333-4.45 4.352 1.899 6.347 6.982 4.45 11.333-1.899 4.351-6.984 6.345-11.333 4.45-4.352-1.898-6.347-6.982-4.45-11.333zm26.039 58.235c-2.6 3.892-8.059 4.969-11.94 2.376-3.947-2.637-5.013-7.993-2.376-11.94 2.599-3.891 8.034-4.987 11.94-2.376 3.88 2.593 4.978 8.045 2.376 11.94zm15.044-59.642c-4.351-1.898-6.346-6.982-4.449-11.333 1.874-4.297 7.037-6.322 11.332-4.449 4.351 1.898 6.347 6.981 4.45 11.332-1.899 4.35-6.984 6.346-11.333 4.45zm-32.475-35.656c1.898-4.35 6.983-6.347 11.333-4.449 4.279 1.868 6.32 7.038 4.449 11.333-1.867 4.286-7.051 6.316-11.332 4.449-4.352-1.899-6.347-6.983-4.45-11.333zm-28.006 12.29c4.294 0 8.019 3.22 8.541 7.587.564 4.713-2.813 9.006-7.525 9.57-4.651.556-9.015-2.875-9.57-7.525-.601-5.043 3.476-9.632 8.554-9.632zm-23.39 36.251c1.002-4.58 5.689-7.569 10.251-6.569s7.572 5.675 6.568 10.251c-1.001 4.565-5.69 7.569-10.251 6.568-4.575-1.002-7.57-5.675-6.568-10.25zm-13.138 29.171c1.848-4.309 7.038-6.325 11.333-4.45 4.351 1.899 6.346 6.983 4.45 11.333-1.899 4.35-6.983 6.345-11.333 4.45-4.352-1.899-6.347-6.983-4.45-11.333zm8.993 60.672c1.281-4.51 6.136-7.207 10.633-5.931 4.566 1.296 7.226 6.066 5.93 10.634-1.275 4.494-6.14 7.204-10.632 5.929-4.506-1.28-7.21-6.127-5.931-10.632zm48.414 12.059c-1.276 4.496-6.143 7.205-10.632 5.931-4.505-1.279-7.21-6.127-5.931-10.632 1.281-4.511 6.135-7.207 10.632-5.931 4.493 1.275 7.211 6.125 5.931 10.632zM437.79 254.533c.017-16.337-16.619-27.54-31.652-21.638-10.856 4.262-16.881 16.356-13.954 27.401a22.997 22.997 0 0 0-11.811 5.5 7.29 7.29 0 0 0 9.616 10.954c5.598-4.913 14.753-.408 14.27 7.028-.481 7.406-10.179 10.677-15.06 5.12a7.29 7.29 0 0 0-10.285-.669 7.283 7.283 0 0 0-2.204 7.437c-16.21 4.901-21.507 25.753-9.922 37.942-4.742 4.416-7.405 10.536-7.39 16.987a23.026 23.026 0 0 0-11.147 2.4 7.287 7.287 0 0 0-3.287 9.768 7.286 7.286 0 0 0 9.768 3.287c6.674-3.315 14.373 3.356 11.987 10.455-2.376 7.07-12.604 7.657-15.869 1.084a7.286 7.286 0 0 0-9.768-3.287c-3.457 1.716-4.944 5.807-3.482 9.319-7.445 1.445-13.75 6.446-16.82 13.391a7.288 7.288 0 0 0 3.719 9.612 7.287 7.287 0 0 0 9.612-3.719c1.894-4.287 7.07-6.286 11.355-4.391 4.34 1.92 6.311 7.014 4.392 11.355s-7.015 6.311-11.355 4.392a7.292 7.292 0 0 0-9.613 3.718c-2.308 5.217 1.708 9.318 6.452 10.617-4.395 10.762-.096 23.381 10.342 29.09 10.788 5.901 25.052 2.02 31.174-8.74a23.059 23.059 0 0 0 7.485 4.546c3.683 1.366 7.95-.48 9.367-4.3a7.288 7.288 0 0 0-4.3-9.367c-4.451-1.65-6.729-6.614-5.078-11.065 1.63-4.394 6.671-6.707 11.065-5.078 4.451 1.65 6.729 6.614 5.078 11.065a7.288 7.288 0 1 0 13.667 5.067 23.048 23.048 0 0 0 1.331-10.33c15.086 1.439 27.942-13.366 24.628-28 4.309.465 8.66-.244 12.78-2.306a7.29 7.29 0 0 0 3.258-9.779 7.291 7.291 0 0 0-9.778-3.258c-4.246 2.126-9.428.396-11.55-3.848-2.124-4.246-.398-9.428 3.848-11.551 4.183-2.091 9.452-.342 11.55 3.848a7.29 7.29 0 0 0 13.037-6.521 23.267 23.267 0 0 0-3.933-5.617c7.661-3.097 13.251-10.281 14.322-18.504.917-7.037-1.429-14.023-6.33-19.101a23.145 23.145 0 0 0 5.597-6.414 7.289 7.289 0 0 0-12.562-7.392c-2.373 4.034-7.761 5.421-11.785 3.054-4.092-2.407-5.462-7.694-3.055-11.785 2.376-4.038 7.747-5.429 11.786-3.055a7.289 7.289 0 0 0 7.392-12.562 23.343 23.343 0 0 0-4.97-2.19c4.554-14.83-6.679-29.829-21.918-29.97zm-26.996 95.388c-3.451-3.165-3.692-8.711-.527-12.162 3.163-3.449 8.706-3.698 12.163-.527 3.44 3.155 3.693 8.713.527 12.163-3.209 3.498-8.667 3.732-12.163.526zm-12.856 19.856c3.163-3.449 8.705-3.697 12.162-.527 3.44 3.154 3.692 8.712.527 12.163s-8.717 3.688-12.163.527c-3.498-3.208-3.735-8.666-.526-12.163zm14.755-66.613c3.315-3.402 8.776-3.466 12.174-.156 3.343 3.257 3.426 8.822.156 12.174-3.316 3.398-8.775 3.468-12.174.156-3.399-3.314-3.469-8.775-.156-12.174zm-40.242 92.603c2.226-4.121 7.564-5.676 11.683-3.423 4.165 2.278 5.7 7.519 3.423 11.683-2.245 4.105-7.589 5.663-11.684 3.423-4.121-2.253-5.648-7.561-3.422-11.683zm3.786-51.008c3.209-3.5 8.667-3.732 12.163-.526 3.44 3.154 3.692 8.711.527 12.162-3.166 3.452-8.72 3.685-12.163.527-3.452-3.165-3.693-8.711-.527-12.163zm67.582 1.454c-2.895-3.762-2.19-9.178 1.572-12.073 3.711-2.855 9.215-2.142 12.072 1.571 2.847 3.7 2.14 9.218-1.571 12.073-3.715 2.859-9.222 2.133-12.073-1.571zm-2.835-76.388c4.352 1.899 6.347 6.982 4.45 11.333-1.899 4.351-6.982 6.347-11.333 4.449-4.291-1.873-6.321-7.04-4.449-11.332 1.922-4.406 7.064-6.312 11.332-4.45zm-34.264-18.79c1.873-4.297 7.037-6.322 11.332-4.449 4.351 1.898 6.346 6.981 4.449 11.332-1.869 4.285-7.055 6.316-11.332 4.45-4.345-1.895-6.343-6.987-4.449-11.333zm-29.161 60.733c3.317-3.401 8.777-3.467 12.174-.156 3.399 3.314 3.468 8.775.156 12.174-3.264 3.349-8.841 3.406-12.174.156-3.352-3.27-3.426-8.821-.156-12.174zm-13.198 129.71c-2.245 4.105-7.588 5.662-11.683 3.423-4.122-2.254-5.647-7.561-3.423-11.684 2.224-4.122 7.566-5.675 11.683-3.423 4.165 2.278 5.701 7.519 3.423 11.684zm60.647-30.961c-2.245 4.103-7.589 5.662-11.683 3.423-4.165-2.278-5.7-7.519-3.423-11.684 2.247-4.11 7.563-5.676 11.683-3.423 4.096 2.239 5.672 7.574 3.423 11.684z" fill="#000000" opacity="1" data-original="#000000" class=""></path></g></svg>