<svg xmlns="http://www.w3.org/2000/svg" version="1.1" xmlns:xlink="http://www.w3.org/1999/xlink" width="512" height="512" x="0" y="0" viewBox="0 0 511.998 511" style="enable-background:new 0 0 512 512" xml:space="preserve" class=""><g><path fill="#8bcc3f" d="M359.934 109.574s-5.575-62.398-68.766-60.59c0 0-8.598 57.934 48.105 77.801zm0 0" opacity="1" data-original="#8bcc3f"></path><path fill="#659922" d="M293.555 48.953c35.183 10.875 48.855 52.645 53.312 71.504l13.067-10.883s-5.438-60.808-66.38-60.62zm0 0" opacity="1" data-original="#659922"></path><path fill="#8bcc3f" d="M359.934 109.574s-13.758-61.117 46.964-78.703c0 0 25.887 52.535-22.035 88.777zm0 0" opacity="1" data-original="#8bcc3f"></path><path fill="#659922" d="M406.898 30.871a84.841 84.841 0 0 0-11.07 4.027c2.89 18.54 3.684 53.704-23.957 79.5l12.992 5.25c47.922-36.242 22.035-88.777 22.035-88.777zm0 0" opacity="1" data-original="#659922"></path><path fill="#fb4239" d="M496.066 171.637c-32.078-78.348-121.457-64.36-136.132-62.063-14.676 2.297-104.059 16.281-110.664 100.688-6.301 80.48 84.503 172.648 151.792 162.12 67.286-10.53 125.594-126.034 95.004-200.745zm0 0" opacity="1" data-original="#fb4239"></path><path fill="#d10d0d" d="M314.82 203.45c-5.691-23.942-16.527-44.466-32.03-61.071-17.208 14.93-31.071 36.55-33.524 67.883-3.13 39.984 17.718 82.851 47.734 114.582 19.809-40.75 26.625-84.352 17.82-121.395zm0 0" opacity="1" data-original="#d10d0d"></path><path fill="#e31f1d" d="M496.066 171.637c-11.562-28.242-30.574-44.485-50.847-53.606 7.129 8.043 13.39 17.867 18.304 29.871 30.586 74.707-27.718 190.211-95.007 200.743-19.516 3.05-41.008-2.547-61.54-13.977 28.805 26.402 63.82 42.45 94.087 37.71 67.285-10.526 125.593-126.03 95.003-200.741zm0 0" opacity="1" data-original="#e31f1d" class=""></path><path fill="#8bcc3f" d="M125.766 128.34s-17.149-69.207-87.91-56.156c0 0 .433 66.66 67.675 79.117zm0 0" opacity="1" data-original="#8bcc3f"></path><path fill="#659922" d="M46.121 71.012c37.992 17.238 59.406 80.273 59.41 80.289l20.235-22.961S109.957 64.594 46.12 71.012zm0 0" opacity="1" data-original="#659922"></path><path fill="#8bcc3f" d="M153.004 114.371s4.71-71.144-66.664-80.234c0 0-19.863 63.633 40.402 95.953zm0 0" opacity="1" data-original="#8bcc3f"></path><path fill="#659922" d="M89.027 34.52c37.649 18.425 45.676 67.796 47.368 89.792l16.609-9.94s4.586-69.333-63.977-79.852zm0 0" opacity="1" data-original="#659922"></path><path fill="#8bcc3f" d="M180.238 128.34s17.149-69.207 87.91-56.156c0 0-.433 66.66-67.675 79.117zm0 0" opacity="1" data-original="#8bcc3f"></path><path fill="#659922" d="M254.262 70.617c-2.633 17.969-14.028 58.938-63.332 69.856l9.543 10.828c67.242-12.457 67.675-79.117 67.675-79.117-4.882-.903-9.5-1.399-13.886-1.567zm0 0" opacity="1" data-original="#659922"></path><path fill="#8bcc3f" d="M153.004 114.371s-4.715-71.144 66.66-80.234c0 0 19.867 63.633-40.402 95.953zm0 0" opacity="1" data-original="#8bcc3f"></path><path fill="#659922" d="M219.664 34.137a96.53 96.53 0 0 0-13.156 2.582c-.012 21.355-5.309 61.035-40.934 85.18l13.688 8.19c60.27-32.32 40.402-95.952 40.402-95.952zm0 0" opacity="1" data-original="#659922"></path><path fill="#fb4239" d="M295.168 208.121c-22.285-93.75-125.258-93.75-142.164-93.75s-119.879 0-142.164 93.75c-21.25 89.395 64.644 209.02 142.164 209.02 77.52 0 163.41-119.625 142.164-209.02zm0 0" opacity="1" data-original="#fb4239"></path><path fill="#e31f1d" d="M295.168 208.121c-8.035-33.793-26.555-55.402-47.746-69.226 6.598 10.296 11.91 22.449 15.324 36.808 21.25 89.395-64.644 209.02-142.164 209.02-22.484 0-45.668-10.078-66.742-26.547 27.746 34.762 64.297 58.965 99.164 58.965 77.52 0 163.41-119.625 142.164-209.02zm0 0" opacity="1" data-original="#e31f1d" class=""></path><path d="M365.496 145.137c-4.84.758-8.152 5.297-7.394 10.136.757 4.844 6.671 16.922 11.511 16.165 4.844-.758 6.782-14.067 6.024-18.907a8.873 8.873 0 0 0-10.14-7.394zM441.918 162.816a8.873 8.873 0 0 0-10.14-7.394c-4.84.758-8.153 5.297-7.395 10.137.758 4.843 6.668 16.921 11.512 16.164 4.843-.758 6.78-14.067 6.023-18.907zM411.688 239.402c4.843-.757 6.78-14.062 6.023-18.906a8.875 8.875 0 0 0-17.535 2.746c.758 4.84 6.668 16.918 11.512 16.16zM449.95 294.492c4.843-.758 6.78-14.062 6.023-18.906-.758-4.84-5.297-8.152-10.137-7.395-4.844.758-8.156 5.297-7.395 10.141.754 4.84 6.668 16.918 11.508 16.16zM477.55 218.316c4.84-.757 6.782-14.062 6.024-18.906-.758-4.84-5.297-8.152-10.14-7.394s-8.153 5.297-7.395 10.14c.758 4.84 6.668 16.918 11.512 16.16zM305.527 175.18c-4.84.757-8.152 5.297-7.394 10.136.758 4.844 6.668 16.922 11.512 16.164 4.843-.757 6.78-14.062 6.023-18.906a8.873 8.873 0 0 0-10.14-7.394zM346.2 222.707c-4.84.758-8.153 5.297-7.395 10.137.758 4.844 6.668 16.922 11.511 16.164 4.844-.758 6.782-14.067 6.024-18.906a8.873 8.873 0 0 0-10.14-7.395zM326.598 286.852a8.875 8.875 0 0 0-7.395 10.14c.758 4.84 6.668 16.918 11.512 16.16 4.84-.757 6.781-14.062 6.023-18.906a8.875 8.875 0 0 0-10.14-7.394zM390.605 305.578c-4.84.758-8.152 5.297-7.394 10.137.758 4.844 6.668 16.922 11.512 16.164 4.843-.758 6.78-14.067 6.023-18.906a8.873 8.873 0 0 0-10.14-7.395zM153.004 185.645c5.578 0 10.098-14.625 10.098-20.204s-4.52-10.097-10.098-10.097-10.102 4.52-10.102 10.097 4.524 20.204 10.102 20.204zM225.727 208.875c5.578 0 10.101-14.625 10.101-20.203s-4.523-10.098-10.101-10.098c-5.579 0-10.102 4.52-10.102 10.098 0 5.582 4.523 20.203 10.102 20.203zM198.453 249.277c0-5.578-4.52-10.101-10.098-10.101s-10.101 4.523-10.101 10.101 4.523 20.2 10.101 20.2 10.098-14.622 10.098-20.2zM211.586 317.96c0 5.58 4.523 20.2 10.098 20.2 5.578 0 10.101-14.62 10.101-20.2 0-5.577-4.523-10.1-10.101-10.1-5.575 0-10.098 4.523-10.098 10.1zM276.23 237.156c0-5.578-4.523-10.101-10.101-10.101s-10.102 4.523-10.102 10.101 4.524 20.2 10.102 20.2 10.101-14.622 10.101-20.2zM80.281 178.574c-5.578 0-10.101 4.52-10.101 10.098s4.523 20.203 10.101 20.203S90.38 194.25 90.38 188.672s-4.52-10.098-10.098-10.098zM127.75 249.277c0-5.578-4.52-10.101-10.098-10.101s-10.101 4.523-10.101 10.101 4.523 20.2 10.101 20.2 10.098-14.622 10.098-20.2zM74.219 317.96c0 5.58 4.523 20.2 10.101 20.2 5.578 0 10.098-14.62 10.098-20.2 0-5.577-4.52-10.1-10.098-10.1-5.578 0-10.101 4.523-10.101 10.1zM153.004 370.48c5.578 0 10.098-14.62 10.098-20.199s-4.52-10.101-10.098-10.101-10.102 4.523-10.102 10.101 4.524 20.2 10.102 20.2zM49.977 237.156c0-5.578-4.52-10.101-10.098-10.101s-10.102 4.523-10.102 10.101 4.524 20.2 10.102 20.2 10.098-14.622 10.098-20.2zm0 0" fill="#000000" opacity="1" data-original="#000000"></path><path d="M485.5 139.14a7.576 7.576 0 1 0-11.645 9.695c6.118 7.349 11.235 15.99 15.2 25.677 14.66 35.808 8.504 85.12-16.067 128.687-19.465 34.516-46.793 57.578-73.101 61.692-17.164 2.687-37.024-1.985-57.434-13.512-18.531-10.469-36.547-26.23-51.129-44.656 14.14-34.332 18.465-69.832 11.211-100.352-4.828-20.316-13.191-36.527-23.668-49.465 11.461-12.996 27.176-23.32 46.828-30.722 16.453-6.196 30.711-8.403 35.41-9.13 5.215-.82 19.075-2.991 36.5-2.12 20.024.992 37.555 5.648 52.11 13.843a7.574 7.574 0 0 0 10.316-2.886c2.055-3.645.762-8.262-2.883-10.317-13.23-7.449-28.468-12.32-45.425-14.558 20.382-35.137 2.808-71.79 1.968-73.493a7.572 7.572 0 0 0-8.902-3.93c-26.598 7.7-40.258 23.165-47.137 38.65-3.664-10.817-8.675-22.684-15.554-34.704a7.572 7.572 0 0 0-10.336-2.812 7.573 7.573 0 0 0-2.813 10.336c3.965 6.93 7.258 13.835 10 20.496-11.152-8.68-26.61-14.754-48-14.153a7.576 7.576 0 0 0-7.277 6.461c-.277 1.88-5.809 42.14 24.328 69.38-15.852 7.491-29.078 17.03-39.484 28.495-5.34-5.02-11.032-9.398-16.942-13.23 23.617-25.52 24.137-58.746 24.149-60.282a7.579 7.579 0 0 0-6.2-7.5c-14.21-2.625-27.406-2.304-39.41.915 1.367-18.758-2.992-33.043-3.215-33.77a7.582 7.582 0 0 0-8.191-5.258c-24.16 3.078-40.371 12.762-51.25 24.57 3.746-12.874 9.527-26.039 18.477-38.753a7.573 7.573 0 0 0-1.832-10.555 7.576 7.576 0 0 0-10.555 1.836c-14.281 20.281-21.352 40.918-24.832 61.344-9.953-17.579-28.164-34.207-61.418-38.442-3.64-.453-7.094 1.754-8.188 5.258-.23.727-4.586 15.016-3.218 33.77-12.004-3.215-25.203-3.536-39.41-.91a7.575 7.575 0 0 0-6.2 7.495c.008 1.536.532 34.801 24.188 60.325-12.164 7.953-22.535 17.652-30.813 29-2.465 3.383-1.726 8.12 1.653 10.586a7.578 7.578 0 0 0 10.586-1.657C66.699 128.254 122.488 121.95 153 121.95c34.246 0 115.93 8.57 134.793 87.93 10.258 43.152-5.414 97.855-40.902 142.77-28.164 35.644-63.262 56.921-93.891 56.921s-65.727-21.277-93.89-56.922c-35.485-44.914-51.157-99.62-40.9-142.773.864-3.64 1.884-7.227 3.032-10.656a7.576 7.576 0 0 0-4.785-9.586c-3.965-1.328-8.258.816-9.586 4.785a139.979 139.979 0 0 0-3.402 11.953c-11.305 47.555 5.46 107.203 43.758 155.668 14.652 18.547 31.644 34.059 49.132 44.852 19.16 11.828 38.22 17.828 56.645 17.828 18.422 0 37.48-6 56.64-17.828 17.489-10.797 34.481-26.305 49.137-44.852 10.032-12.7 18.574-26.172 25.535-39.988 15.567 18.308 34.383 34.254 55.829 45.246 18.89 9.687 40.761 15.902 62.085 12.562 31.305-4.894 61.907-30.125 83.954-69.214 26.796-47.512 33.27-101.875 16.89-141.875-4.55-11.118-10.465-21.086-17.574-29.63zm-83.031-98.8c3.75 11.406 8.976 36.781-8.028 59.312-11.222-.304-20.98.512-27.722 1.32a146.17 146.17 0 0 0-.508-3.671c-.512-16.52 3.844-44.446 36.258-56.961zm-104.23 16.3c37.5 2.145 49.288 31.239 52.906 46.75-6.657 1.274-16.305 3.485-27.11 7.282-23.265-16.375-25.945-42.027-25.797-54.031zM259.98 78.626c-1.406 10.29-6.152 30.715-22.035 46.16-8.918-4.398-18.082-7.758-27.082-10.305 7.805-9.28 13.317-19.976 16.465-31.96 9.676-3.907 20.617-5.22 32.652-3.895zm-46.105-35.871c1.262 7.078 2.48 19.297-.43 32.734-2.965 13.707-9.574 25.469-19.644 35.016-12.305-2.293-23.746-3.262-33.133-3.578 1.11-17.715 8.805-55.168 53.207-64.172zm-121.727 0c44.301 8.965 52.086 46.02 53.18 64.172-11.613.355-22.723 1.511-33.242 3.46-10.004-9.523-16.57-21.245-19.523-34.902-2.891-13.34-1.668-25.617-.415-32.73zM46.023 78.625C58.06 77.301 69 78.613 78.68 82.52c3.136 11.94 8.625 22.605 16.386 31.863-9.625 2.746-18.656 6.21-27.023 10.387-15.871-15.45-20.613-35.868-22.02-46.145zm0 0" fill="#000000" opacity="1" data-original="#000000"></path></g></svg>