<svg xmlns="http://www.w3.org/2000/svg" version="1.1" xmlns:xlink="http://www.w3.org/1999/xlink" width="512" height="512" x="0" y="0" viewBox="0 0 128 128" style="enable-background:new 0 0 512 512" xml:space="preserve" class=""><g><g data-name="Layer 2"><path fill="#3d7546" d="M98.019 101.127a50.6 50.6 0 1 1-41.01-82.3l3.459.009a50.646 50.646 0 0 1 47.525 61.587z" opacity="1" data-original="#3d7546"></path><path fill="#315b35" d="M94.068 33.334A62.95 62.95 0 0 1 48.46 88.03a62.628 62.628 0 0 1-37.3-1 50.608 50.608 0 0 0 86.858 14.098l9.975-20.704a50.657 50.657 0 0 0-13.926-47.089z" opacity="1" data-original="#315b35"></path><path fill="#2a422b" d="M56.197 25.847A16.11 16.11 0 0 1 65.28 9.561a14.18 14.18 0 0 1 16.424 2.544l-3.254 3.08a9.7 9.7 0 0 0-11.198-1.6c-9.253 4.535-5.896 14.814-6.548 12.38z" opacity="1" data-original="#2a422b"></path><path fill="#203321" d="m78.45 15.185 2.176-2.06a12.993 12.993 0 0 0-14.134-1.333c-7.672 3.687-8.31 9.822-8.238 14.109l2.449.063c.652 2.435-2.705-7.844 6.548-12.38a9.7 9.7 0 0 1 11.198 1.6z" opacity="1" data-original="#203321"></path><g fill="#7fbf6a"><path d="m25.273 57.136 5.464-6.543 2.342-7.118 10.147-5.073 3.122-5.074v-5.464l-9.757.837s-4.683 8.53-5.854 9.31-6.635 2.732-8.196 3.903-3.903 10.928-3.903 10.928-4.293 5.464-5.074 7.026 1.171 9.97.39 10.84c-.764.85-4.002 11.667-4.138 12.124a50.248 50.248 0 0 0 3.904 9.933l4.527-8.118v-10.73l7.026-6.634zM86.333 87.362l-4.63-12.273 1.723-3.513-3.903-4.683 2.18-8.977-2.961-6.244 1.561-7.806-6.244-8.587-7.025 1.952 5.073 8.196-3.903 10.928 3.903 6.245-3.194 10.537 2.804 4.746-6.804 16.732zM54.935 37.23 44.397 48.55l-1.561 10.537-5.464 9.757.39 10.948-4.684 7.689 1.337 8.03-5.63 6.333 1.831 9.712a50.333 50.333 0 0 0 15.377 6.86l-1.986-21.861 3.512-6.667-1.951-5.241 4.293-7.997-1.171-7.806 7.433-9.757-1.188-8.977 3.664-11.709zM85.274 26.41l-5.751 3.796 8.732 4.683 1.415 7.416 7.143 6.635-.508 8.196 5.074 5.22-.39 5.802 2.341 1.243-4.238 11 9.127-1.142A50.525 50.525 0 0 0 85.274 26.41z" fill="#7fbf6a" opacity="1" data-original="#7fbf6a"></path></g><path fill="#669b50" d="M94.065 33.36a62.711 62.711 0 0 1-2.063 11.111l4.811 4.469-.508 8.196 5.074 5.22-.39 5.803 2.342 1.243-4.238 11 9.127-1.142a50.423 50.423 0 0 0-14.155-45.9zM83.426 71.576l-3.442-4.13a62.8 62.8 0 0 1-9.098 9.03l.831 1.407-6.804 16.732 21.42-7.253-4.63-12.273zM46.969 88.41a63.006 63.006 0 0 1-13.412 1.943l.858 5.158-5.63 6.333 1.831 9.712a50.333 50.333 0 0 0 15.378 6.86l-1.987-21.861 3.512-6.667zM11.19 87.039a50.32 50.32 0 0 0 2.53 5.726l2.384-4.273q-2.49-.627-4.913-1.453z" opacity="1" data-original="#669b50"></path><path fill="#3d7546" d="m98.659 76.19 21.275-8.032a47.256 47.256 0 0 1-85.52 32.282l21.4-8.077z" opacity="1" data-original="#3d7546"></path><path fill="#afd8a0" d="M118.406 68.735 98.659 76.19 55.813 92.362l-19.698 7.436c12.777 15.862 33.862 22.756 52.887 15.574s30.294-26.288 29.404-46.637z" opacity="1" data-original="#afd8a0"></path><path fill="#db2e40" d="M113.182 70.707a40.319 40.319 0 0 1-72.015 27.184z" opacity="1" data-original="#db2e40"></path><path fill="#c61e32" d="M113.182 70.707 97.47 76.638a54.263 54.263 0 0 1-31.31 36.167 40.32 40.32 0 0 0 47.022-42.098z" opacity="1" data-original="#c61e32"></path></g><g data-name="Layer 3"><path d="M120.929 68.054a1 1 0 0 0-1.348-.831l-8.41 3.174-1.005.38c.012-.458.032-.915.032-1.376a51.768 51.768 0 0 0-46.746-51.358 10.741 10.741 0 0 1 4.24-3.56 8.683 8.683 0 0 1 10.041 1.4 1.002 1.002 0 0 0 1.404.028l3.254-3.079a1 1 0 0 0 .038-1.414 15.195 15.195 0 0 0-17.59-2.754 16.508 16.508 0 0 0-8.554 9.202A51.593 51.593 0 0 0 58.6 121c1.717 0 3.453-.086 5.158-.255a.972.972 0 0 0 .502-.218 48.246 48.246 0 0 0 56.67-52.473zm-34.112 41.79a39.13 39.13 0 0 1-44.002-11.506L99.01 77.125h.002l13.229-4.994a39.133 39.133 0 0 1-25.424 37.713zM65.72 10.46a13.21 13.21 0 0 1 14.528 1.646l-1.828 1.729a10.628 10.628 0 0 0-11.609-1.148 12.46 12.46 0 0 0-7.149 12.631 23.09 23.09 0 0 1-2.513-.09l.001-.01a15.116 15.116 0 0 1 8.57-14.758zM31.515 110.92l-1.656-8.78 5.304-5.965a.999.999 0 0 0 .238-.828l-1.275-7.663 4.49-7.371a1.003 1.003 0 0 0 .145-.557l-.38-10.668 5.327-9.512a1.014 1.014 0 0 0 .117-.343l1.516-10.23 10.325-11.09a1 1 0 0 0-1.463-1.364L43.665 47.868a1.004 1.004 0 0 0-.257.535l-1.535 10.356-5.374 9.596a1 1 0 0 0-.127.525l.38 10.648-4.527 7.432a.998.998 0 0 0-.133.684l1.258 7.56-5.312 5.976a1.001 1.001 0 0 0-.235.85l1.37 7.269a49.952 49.952 0 0 1-14.31-16.532l4.258-7.633a1.002 1.002 0 0 0 .127-.488V74.35l6.712-6.339a.997.997 0 0 0 .313-.727v-9.785l5.232-6.264a.993.993 0 0 0 .182-.329l2.212-6.721 9.775-4.888a1.002 1.002 0 0 0 .404-.37l3.122-5.074a1 1 0 1 0-1.703-1.048l-2.973 4.83-9.893 4.947a.999.999 0 0 0-.502.582L29.847 50.1l-5.342 6.396a1 1 0 0 0-.232.64v9.717l-6.712 6.34a.997.997 0 0 0-.313.726v10.469l-3.473 6.226a49.227 49.227 0 0 1-2.913-7.786 114.444 114.444 0 0 1 3.837-11.452c.629-.7.526-2.065.073-5.785-.213-1.75-.57-4.677-.313-5.275a81.149 81.149 0 0 1 4.965-6.855.99.99 0 0 0 .186-.384c1.08-4.498 2.758-9.736 3.531-10.362a32.822 32.822 0 0 1 4.776-2.293 26.61 26.61 0 0 0 3.375-1.577c1.171-.782 4.352-6.36 5.918-9.193l9.224-.79a1 1 0 1 0-.17-1.993l-9.758.836a1.001 1.001 0 0 0-.791.515c-2.145 3.907-4.875 8.447-5.533 8.961a30.42 30.42 0 0 1-3.05 1.401 31.427 31.427 0 0 0-5.191 2.534c-1.631 1.223-3.461 8.133-4.224 11.281a77.908 77.908 0 0 0-5.047 7.024c-.508 1.016-.287 3.098.117 6.41a25.173 25.173 0 0 1 .326 4.338c-.657.983-2.014 5.085-3.174 8.822a49.572 49.572 0 0 1 45.724-59.088 18.938 18.938 0 0 0-.525 5.048 20.786 20.786 0 0 1-2.094-.49 1 1 0 1 0-.568 1.918 23.645 23.645 0 0 0 6.737.954 29.33 29.33 0 0 0 7.301-.967 1 1 0 1 0-.498-1.937 28.733 28.733 0 0 1-4.357.769 11.825 11.825 0 0 1 .769-5.245 49.76 49.76 0 0 1 45.77 49.45c0 .716-.02 1.428-.05 2.137l-5.347 2.018 1.463-3.796a.999.999 0 0 0-.465-1.242l-1.77-.94.347-5.157a1 1 0 0 0-.28-.763l-4.766-4.903.481-7.755a1.001 1.001 0 0 0-.317-.795l-6.903-6.411-1.354-7.093a1 1 0 0 0-.51-.694l-8.732-4.684a1 1 0 1 0-.945 1.763l8.311 4.458 1.327 6.947a1.002 1.002 0 0 0 .301.546l6.797 6.312-.479 7.724a1 1 0 0 0 .28.758l4.764 4.9-.36 5.358a.999.999 0 0 0 .529.95l1.559.828-1.786 4.635-15.53 5.862-1.971-5.225 1.532-3.124a1 1 0 0 0-.13-1.081l-3.58-4.296 2.06-8.488a.998.998 0 0 0-.067-.664l-2.82-5.945 1.497-7.48a1 1 0 0 0-.172-.785l-6.245-8.586a1 1 0 0 0-1.617 1.177l5.987 8.232-1.475 7.375a1 1 0 0 0 .076.625l2.81 5.925-2.096 8.632a1 1 0 0 0 .203.877l3.488 4.184-1.437 2.93a.998.998 0 0 0-.038.794l2.124 5.63-13.458 5.08 3.21-7.892a1.001 1.001 0 0 0-.065-.886l-2.58-4.367 3.066-10.117a1.001 1.001 0 0 0-.11-.82l-3.646-5.834 3.74-10.473a1 1 0 0 0-.092-.862l-5.073-8.196a1 1 0 0 0-1.7 1.052l4.82 7.787-3.741 10.475a1 1 0 0 0 .093.866l3.663 5.86-3.062 10.103a1.001 1.001 0 0 0 .096.798l2.552 4.319-3.717 9.138-.002.01-20.939 7.904 2.457-4.663a.997.997 0 0 0 .052-.814l-1.793-4.818 4.079-7.599a.996.996 0 0 0 .108-.621l-1.108-7.389 7.177-9.42a1 1 0 0 0 .196-.737l-1.16-8.757L59.553 38.7a1 1 0 0 0-1.91-.598L53.98 49.811a1 1 0 0 0-.037.43l1.135 8.568-7.183 9.428a1.003 1.003 0 0 0-.194.755l1.122 7.478-4.136 7.704a.996.996 0 0 0-.056.821l1.795 4.823-3.3 6.265-2.312.872-6.752 2.549a1 1 0 0 0-.462 1.515 48.108 48.108 0 0 0 24.576 17.97 49.288 49.288 0 0 1-26.661-8.068zm57.754 5.419a46.263 46.263 0 0 1-53.271-15.428l4.855-1.832a41.103 41.103 0 0 0 31.986 15.33 41.41 41.41 0 0 0 41.37-43.021l4.848-1.83a46.266 46.266 0 0 1-29.788 46.78z" fill="#000000" opacity="1" data-original="#000000"></path><path d="M65.073 94.71a.999.999 0 0 0-1.34.452l-1.94 3.904a1 1 0 1 0 1.792.89l1.939-3.905a1 1 0 0 0-.451-1.34zM75.43 96.494a1 1 0 0 0-.936 1.06l.273 4.352a1 1 0 0 0 .997.938l.063-.002a1 1 0 0 0 .936-1.06l-.273-4.352a1.004 1.004 0 0 0-1.06-.936zM86.676 93.14a1 1 0 0 0-1.666 1.108l2.412 3.632a1 1 0 0 0 1.666-1.107zM97.258 86.273l-3.904-1.939a1 1 0 1 0-.89 1.791l3.904 1.94a1 1 0 1 0 .89-1.792z" fill="#000000" opacity="1" data-original="#000000"></path></g></g></svg>